<?xml version="1.0" standalone="no"?>
<!DOCTYPE svg PUBLIC "-//W3C//DTD SVG 20010904//EN"
 "http://www.w3.org/TR/2001/REC-SVG-20010904/DTD/svg10.dtd">
<svg version="1.0" xmlns="http://www.w3.org/2000/svg"
 width="1200.000000pt" height="970.000000pt" viewBox="0 0 1200.000000 970.000000"
 preserveAspectRatio="xMidYMid meet">
<metadata>
Created by potrace 1.16, written by Peter Selinger 2001-2019
</metadata>
<g transform="translate(0.000000,970.000000) scale(0.100000,-0.100000)"
fill="#000000" stroke="none">
<path d="M4956 9648 c-4 -29 -11 -125 -16 -213 -14 -253 -28 -417 -39 -481
-35 -197 -41 -245 -35 -269 4 -15 2 -36 -4 -48 -13 -28 -39 -105 -46 -138 -5
-24 -11 -27 -68 -33 -118 -13 -183 -25 -403 -72 -259 -55 -445 -154 -445 -237
0 -8 30 -31 68 -52 37 -20 92 -52 122 -71 30 -19 87 -44 125 -56 39 -11 74
-24 79 -28 4 -5 -4 -25 -18 -46 -37 -55 -34 -84 14 -127 22 -19 40 -41 40 -47
0 -6 -11 -22 -25 -36 -23 -23 -28 -24 -47 -12 -12 8 -28 32 -35 54 -16 47 -29
61 -66 69 -23 6 -33 1 -65 -34 -30 -33 -44 -41 -73 -41 -63 0 -178 -105 -164
-150 7 -23 58 -55 103 -65 37 -8 92 -50 92 -70 0 -15 -60 -65 -78 -65 -16 0
-79 39 -86 53 -52 102 -83 121 -110 68 -23 -43 -31 -45 -84 -20 -64 31 -136
31 -182 0 -73 -50 -125 -131 -114 -177 4 -13 -1 -32 -10 -46 -25 -35 -19 -56
22 -82 20 -13 46 -33 56 -45 20 -22 20 -22 -1 -43 -29 -29 -68 -18 -95 27 -33
57 -61 42 -77 -41 -7 -32 -6 -73 0 -116 l10 -67 -33 -30 c-66 -62 -105 -53
-158 35 -27 46 -41 59 -59 59 -20 0 -26 -7 -35 -45 l-11 -45 -77 3 c-97 5
-124 -12 -167 -100 -25 -53 -27 -65 -18 -92 6 -17 19 -40 29 -50 18 -19 17
-21 -6 -45 -37 -40 -66 -102 -66 -142 0 -40 28 -72 72 -83 44 -10 98 -63 98
-96 0 -15 -6 -32 -12 -38 -23 -18 -76 -23 -116 -12 -32 10 -44 10 -70 -4 -43
-22 -54 -75 -23 -117 13 -18 20 -37 16 -48 -8 -25 13 -67 42 -86 33 -22 29
-42 -12 -59 -19 -8 -55 -29 -80 -46 -25 -17 -50 -28 -55 -25 -5 3 -17 22 -26
41 -22 46 -53 61 -93 44 -25 -10 -40 -31 -75 -104 -58 -118 -60 -129 -41 -170
16 -34 16 -37 -5 -72 -29 -46 -29 -102 -1 -149 11 -20 21 -41 21 -47 0 -6 -20
-32 -43 -57 -32 -34 -46 -58 -51 -89 -13 -85 32 -112 182 -112 70 0 103 -4
109 -12 4 -7 6 -53 5 -103 -3 -115 -11 -125 -103 -125 -37 0 -74 -3 -83 -6
-28 -11 -18 -44 30 -99 53 -63 52 -68 -26 -134 -62 -53 -84 -96 -69 -138 9
-27 83 -92 133 -119 12 -6 19 -17 17 -25 -3 -8 -6 -52 -9 -97 -4 -83 -4 -84
28 -117 19 -20 49 -38 74 -44 38 -9 53 -7 140 24 117 42 157 44 202 10 l33
-25 -39 -76 c-46 -86 -48 -99 -20 -116 11 -7 20 -16 20 -20 0 -4 -19 -28 -42
-55 -23 -26 -50 -68 -61 -93 -23 -51 -27 -140 -9 -163 18 -21 65 -27 157 -19
l79 7 11 39 c13 45 43 73 90 82 36 6 80 -17 88 -46 9 -37 -40 -110 -74 -110
-38 0 -32 -49 10 -86 24 -20 24 -23 11 -67 -24 -86 4 -182 73 -255 23 -24 39
-32 66 -32 43 0 103 39 130 86 23 39 67 64 117 67 l36 2 2 -78 c1 -69 4 -81
23 -97 28 -23 110 -35 145 -21 23 8 27 7 32 -12 3 -12 6 -32 6 -45 0 -13 14
-37 30 -54 28 -28 35 -30 84 -26 50 4 143 43 175 73 7 7 16 28 20 46 8 40 25
47 48 19 10 -12 23 -28 30 -35 23 -24 26 -63 6 -83 -17 -19 -39 -27 -143 -52
-54 -12 -306 -30 -441 -30 -56 0 -113 -6 -136 -14 -22 -8 -82 -14 -138 -15
-152 -2 -283 -12 -299 -25 -8 -6 -26 -60 -41 -120 -39 -163 -57 -201 -172
-373 -58 -88 -134 -218 -170 -292 -36 -74 -77 -153 -91 -175 -33 -51 -178
-246 -229 -308 -90 -109 -252 -313 -296 -373 -93 -127 -296 -362 -418 -485
-146 -147 -359 -395 -562 -658 -7 -9 103 -12 544 -12 l554 0 80 112 c44 61 98
137 120 169 76 109 139 194 172 234 19 22 38 45 43 51 4 6 26 34 47 61 77 101
199 250 268 328 39 44 84 95 100 114 17 19 68 75 115 124 47 49 92 99 100 111
34 48 469 490 476 483 3 -3 8 -47 11 -99 6 -115 -11 -269 -72 -633 -9 -49 -22
-130 -29 -180 -13 -85 -48 -242 -82 -365 -57 -205 -75 -250 -126 -309 -39 -44
-83 -135 -75 -155 10 -27 49 -18 82 18 30 33 33 34 72 24 48 -12 83 -41 83
-68 0 -20 9 -20 387 -20 301 0 384 3 375 12 -7 7 -12 21 -12 33 0 12 -7 30
-15 41 -8 10 -15 26 -15 35 0 8 -25 67 -56 130 -79 160 -122 299 -136 434 -10
105 -9 114 16 208 32 123 81 227 138 294 68 81 228 265 257 295 24 26 173 150
232 194 72 53 205 173 304 274 61 62 119 120 129 129 10 9 72 70 137 136 139
141 139 141 182 17 l28 -81 -33 -44 c-18 -24 -51 -70 -73 -101 -22 -32 -45
-63 -50 -69 -6 -7 -46 -56 -88 -109 -43 -54 -83 -100 -88 -103 -17 -11 -9 -35
11 -35 12 0 30 15 45 37 13 21 51 72 85 113 33 41 84 107 114 145 55 72 93
111 100 104 20 -24 76 -123 76 -135 0 -13 -12 -42 -75 -179 -39 -84 -155 -316
-178 -355 -62 -106 -110 -211 -101 -220 16 -16 30 2 83 113 37 78 56 107 69
107 10 0 25 12 33 28 7 15 37 64 66 110 57 88 62 102 38 102 -8 0 -15 3 -15 7
0 15 84 183 92 183 13 0 10 -21 -12 -80 -11 -30 -20 -65 -20 -77 0 -12 -4 -24
-9 -27 -5 -3 -11 -18 -14 -33 -6 -32 -113 -453 -127 -498 -18 -59 -50 -237
-50 -278 0 -61 17 -113 44 -135 13 -10 25 -27 28 -37 2 -11 11 -21 20 -23 13
-3 17 8 22 60 19 226 43 379 65 408 27 37 59 188 67 313 7 105 6 108 -14 114
-25 6 -29 31 -7 39 8 4 27 45 42 93 l28 86 7 -50 c11 -77 38 -472 38 -547 0
-94 32 -248 52 -248 4 0 15 15 23 33 14 29 15 0 9 -308 -7 -377 -8 -512 -6
-597 2 -55 3 -58 27 -58 14 0 25 4 25 8 0 5 7 17 16 28 15 18 15 18 9 -9 l-5
-27 90 0 c49 0 90 2 90 4 0 2 -15 14 -34 25 -18 12 -60 48 -92 81 -32 33 -64
60 -71 60 -7 0 -13 6 -14 13 0 6 -2 46 -5 87 -2 41 0 156 6 255 6 99 12 248
14 330 2 83 6 157 9 165 26 71 42 568 22 679 -4 21 -3 32 2 26 10 -11 16 -31
59 -170 48 -161 54 -177 73 -194 18 -15 37 -90 63 -241 5 -30 17 -71 26 -90
10 -19 23 -53 30 -75 14 -46 76 -355 87 -429 4 -27 11 -60 16 -74 8 -21 12
-22 25 -11 9 7 14 22 11 33 -9 40 -37 182 -52 261 -27 139 -37 189 -51 239 -8
27 -13 59 -13 70 1 20 1 20 6 1 3 -11 25 -78 48 -150 52 -155 75 -242 75 -282
0 -35 23 -72 34 -54 18 28 -90 442 -143 550 -12 24 -31 24 -31 1 0 -18 -2 -19
-14 -8 -15 15 -38 110 -56 223 -16 107 -66 315 -100 415 -10 30 -24 80 -30
110 -7 30 -17 67 -22 82 -7 18 -6 33 2 48 7 13 9 37 5 56 -5 27 3 56 41 144
26 61 50 110 53 110 4 0 67 -90 140 -199 73 -110 141 -207 151 -216 13 -12 16
-26 13 -59 -5 -37 -2 -46 17 -59 25 -17 49 -12 31 6 -6 6 -11 22 -11 36 l0 24
24 -22 c22 -21 46 -22 46 -2 0 4 -29 37 -63 72 -35 35 -67 71 -70 79 -4 8 -13
23 -19 34 -183 272 -237 360 -229 373 9 17 72 -54 176 -198 62 -86 129 -170
248 -313 38 -44 91 -111 119 -148 28 -38 54 -68 59 -68 18 0 19 21 2 47 -24
39 -119 168 -135 184 -22 23 -110 137 -208 269 -51 69 -117 157 -147 196 -29
39 -53 76 -53 83 0 21 24 6 39 -24 13 -27 124 -137 261 -260 36 -32 99 -92
140 -134 41 -42 122 -112 180 -155 108 -81 122 -94 244 -231 163 -181 239
-306 310 -510 62 -179 113 -299 153 -357 34 -50 28 -84 -33 -202 -113 -217
-214 -422 -214 -433 0 -17 -40 -43 -66 -43 -23 0 -74 -35 -74 -51 0 -5 169 -9
420 -9 297 0 420 3 420 11 0 16 -37 198 -67 324 -14 61 -29 135 -33 165 -4 30
-22 110 -39 177 -59 229 -124 594 -142 803 -12 136 -24 221 -34 243 -5 12 -3
16 6 12 12 -5 42 -47 179 -255 20 -30 44 -71 53 -90 21 -45 99 -166 208 -321
48 -68 96 -140 106 -159 11 -19 54 -87 95 -150 41 -63 99 -155 129 -205 29
-49 79 -128 109 -175 31 -47 91 -144 134 -215 43 -72 84 -138 91 -148 11 -16
61 -17 746 -15 l734 3 -84 90 c-151 161 -195 209 -257 280 -34 39 -78 88 -99
110 -20 22 -72 85 -115 140 -43 55 -113 136 -156 181 -44 44 -88 97 -98 117
l-20 36 25 20 24 21 -35 30 c-19 16 -50 32 -70 36 -19 3 -48 10 -64 15 -16 5
-55 9 -86 9 l-58 0 -23 48 c-12 26 -30 74 -39 107 l-17 60 -89 46 c-88 46 -89
47 -148 140 -32 52 -72 112 -90 134 -42 54 -106 160 -106 177 0 7 -6 23 -14
34 -10 13 -13 34 -9 61 4 34 10 42 32 46 78 15 175 45 179 55 5 16 -95 79
-154 97 -44 13 -54 21 -72 57 -11 24 -26 77 -33 118 -8 48 -23 91 -41 120 -58
92 -76 217 -38 270 26 37 107 77 123 61 14 -14 67 -15 67 -1 0 12 -70 83 -104
106 -25 16 -28 16 -66 -11 -30 -21 -46 -25 -69 -20 -61 13 -68 59 -11 87 31
16 36 16 52 2 20 -19 48 -12 48 12 0 27 -67 83 -108 89 -20 4 -71 20 -112 36
-131 51 -200 48 -278 -11 -15 -11 -58 -44 -97 -72 -38 -28 -72 -55 -75 -59 -3
-3 -29 -21 -58 -39 -43 -26 -59 -31 -88 -25 -71 13 -138 102 -112 149 11 20
138 58 185 54 35 -3 38 -1 41 26 2 16 -1 33 -7 39 -10 10 -124 11 -256 1 l-80
-7 28 22 c37 30 35 61 -9 131 -40 66 -41 89 -2 108 35 16 73 2 114 -44 30 -32
35 -34 99 -34 54 0 77 5 116 26 62 34 79 70 79 167 0 57 4 80 18 97 l18 22 38
-26 c21 -14 51 -26 66 -26 50 0 90 67 90 155 1 22 7 51 15 65 20 35 18 60 -9
113 -12 26 -21 49 -18 52 3 3 18 5 34 5 20 0 32 -7 39 -23 15 -33 44 -48 103
-54 46 -4 54 -2 90 28 65 55 79 102 77 261 l-1 136 37 19 c47 25 60 56 33 83
-32 32 -24 40 38 40 83 0 98 14 95 87 -1 32 -11 85 -23 117 -11 33 -20 65 -20
72 0 17 39 29 53 15 19 -19 85 -12 125 13 84 52 132 142 132 244 0 57 -20 90
-78 127 -38 24 -48 37 -53 66 -9 58 1 107 27 132 32 30 30 52 -6 67 -16 7 -35
18 -41 26 -9 11 -7 14 13 14 79 0 128 182 77 287 -17 35 -32 49 -77 71 -30 15
-59 34 -65 43 -18 28 3 71 59 125 30 29 54 56 54 61 0 17 -32 54 -61 68 l-30
16 30 29 c34 34 61 107 61 163 0 52 -44 94 -137 132 -60 25 -81 28 -182 29
-94 1 -116 4 -124 17 -18 29 11 77 72 117 69 46 85 81 52 116 -20 22 -22 30
-16 93 8 79 6 83 -67 103 -41 11 -46 15 -38 31 6 10 10 36 10 59 0 59 -45 103
-122 120 -52 12 -59 11 -84 -6 -64 -45 -81 -54 -106 -54 -36 0 -43 15 -23 46
23 35 14 51 -36 59 -23 4 -57 17 -77 28 l-35 21 50 45 c68 61 77 80 62 133
-12 46 -61 98 -119 125 l-35 17 3 81 c3 72 1 82 -19 104 -20 21 -28 23 -83 18
-34 -2 -75 -13 -93 -23 -32 -19 -32 -19 -53 4 -12 12 -33 22 -48 22 -37 0
-111 -44 -145 -86 -33 -39 -53 -42 -106 -15 -63 33 -67 44 -35 98 54 91 57
101 29 129 -16 15 -36 24 -57 24 -51 0 -60 10 -47 48 6 18 8 48 5 67 -6 29
-15 39 -54 60 -26 13 -40 24 -32 25 8 0 42 12 75 25 33 14 88 30 122 35 70 12
188 64 197 87 10 26 -12 86 -44 120 -33 35 -82 51 -230 76 -177 30 -227 37
-267 37 -22 0 -82 9 -134 21 -52 12 -118 25 -148 29 -30 5 -58 15 -62 22 -19
30 -39 121 -54 253 -9 77 -28 208 -42 290 -20 119 -27 205 -33 410 -5 143 -9
261 -9 263 -1 1 -327 2 -725 2 l-723 0 -7 -52z m1979 -1673 c-35 -29 -45 -31
-45 -10 0 16 32 33 60 34 9 0 3 -9 -15 -24z m-1168 -230 c-15 -50 3 -67 34
-31 30 35 39 33 39 -9 0 -22 6 -38 15 -41 8 -4 15 -12 15 -19 0 -24 30 -24 66
0 45 30 54 31 54 4 0 -18 4 -20 45 -13 29 4 50 2 59 -6 10 -8 20 -8 34 -1 24
13 81 12 110 -1 21 -11 22 -15 16 -89 -6 -74 -6 -78 19 -103 20 -20 36 -26 71
-26 25 0 48 -4 51 -10 3 -5 -6 -25 -20 -45 -25 -32 -28 -33 -49 -20 -12 8 -42
19 -67 24 -24 6 -80 19 -124 30 -44 12 -90 21 -102 21 -12 0 -27 9 -33 20 -6
11 -16 18 -21 14 -6 -3 -17 2 -25 12 -13 18 -14 18 -20 -4 -10 -34 -29 -21
-32 21 -4 46 -32 52 -32 7 0 -16 -4 -30 -10 -30 -5 0 -10 23 -10 50 0 28 -5
50 -10 50 -13 0 -29 -41 -23 -57 3 -7 3 -19 0 -27 -5 -12 -15 -12 -68 1 -34 8
-67 12 -74 9 -7 -2 -23 6 -36 20 -12 13 -33 24 -46 24 -14 0 -23 6 -23 15 0
22 -31 18 -37 -5 -3 -11 -9 -20 -13 -20 -5 0 -6 8 -3 19 8 30 -16 35 -29 6 -7
-16 -17 -24 -26 -20 -7 3 -27 5 -43 5 -22 0 -32 6 -38 23 -9 24 -75 88 -110
107 -24 12 -28 40 -6 40 8 0 15 -3 15 -8 0 -4 9 -13 20 -20 26 -16 55 -1 64
33 8 33 18 32 34 -5 13 -28 43 -47 61 -36 4 3 11 20 15 38 l7 33 20 -27 c27
-37 41 -35 77 10 l31 37 15 -37 c9 -21 16 -46 16 -57 0 -26 17 -36 36 -20 11
9 14 25 12 47 -4 29 1 41 29 68 46 46 65 45 50 -1z m-517 -129 c46 -21 80 -50
80 -70 0 -23 -23 -21 -157 9 -19 4 -23 12 -23 44 0 21 3 40 6 43 6 7 45 -3 94
-26z m52 -121 c104 -18 106 -19 112 -48 3 -16 3 -33 0 -38 -10 -17 -24 -9 -24
15 0 14 -4 28 -10 31 -6 4 -10 -7 -10 -24 l0 -31 -63 0 c-71 0 -160 -14 -225
-36 -61 -20 -70 -18 -89 20 -25 54 -13 69 51 61 l55 -7 21 42 c19 37 25 41 48
37 15 -2 75 -12 134 -22z m172 -62 c-1 -39 -24 -42 -24 -4 0 19 5 31 13 31 7
0 12 -11 11 -27z m95 21 c22 -5 31 -12 31 -26 0 -15 -5 -18 -20 -13 -12 4 -27
1 -35 -5 -19 -16 -35 -4 -35 26 0 26 8 28 59 18z m129 -19 c13 -4 21 -9 18
-12 -8 -8 -77 -13 -88 -7 -14 9 13 35 31 30 9 -2 26 -7 39 -11z m85 -12 c-7
-2 -19 -2 -25 0 -7 3 -2 5 12 5 14 0 19 -2 13 -5z m144 -69 c59 -14 145 -34
189 -43 110 -24 144 -45 167 -105 17 -46 17 -48 0 -41 -10 4 -40 14 -68 22
-27 8 -60 19 -73 24 -13 5 -86 9 -163 9 -117 0 -141 3 -146 15 -5 14 -7 14
-23 0 -17 -15 -19 -15 -25 6 -4 12 -2 39 5 60 7 22 10 42 7 45 -11 12 -38 -18
-36 -40 0 -12 1 -37 0 -56 -1 -27 -4 -31 -11 -20 -11 17 -14 133 -3 143 13 13
72 7 180 -19z m143 16 c12 -8 9 -10 -13 -10 -16 0 -26 4 -22 10 8 12 16 12 35
0z m-519 -16 c11 -14 13 -14 21 0 16 29 31 18 25 -20 -6 -38 0 -64 14 -64 5 0
9 23 9 50 0 43 3 50 20 50 12 0 21 -7 22 -17 5 -50 2 -133 -4 -134 -25 -6 -33
-1 -39 21 -7 25 -7 25 -19 -8 -12 -32 -14 -33 -64 -30 -28 1 -57 6 -63 11 -9
6 -13 34 -12 81 1 62 3 67 12 44 13 -34 37 -37 37 -5 0 39 18 48 41 21z m159
-59 c0 -43 -4 -75 -10 -75 -6 0 -10 32 -10 75 0 43 4 75 10 75 6 0 10 -32 10
-75z m-390 38 c0 -35 14 -58 29 -48 8 4 10 18 6 36 -4 18 -3 29 4 29 7 0 11
-25 11 -65 0 -50 3 -65 14 -65 23 0 25 12 14 62 -11 47 -4 89 11 72 5 -5 12
-41 16 -80 l6 -71 -87 -12 c-48 -7 -103 -19 -122 -27 -19 -8 -45 -14 -58 -14
-44 0 -264 -109 -295 -146 -15 -19 -45 -18 -53 2 -11 27 -7 54 9 60 8 4 15 12
15 19 0 6 14 27 31 44 20 21 29 40 26 52 -5 20 14 41 35 38 36 -4 50 5 75 49
25 45 31 50 87 65 87 23 94 25 164 26 61 1 62 1 62 -26z m994 -41 c48 -26 70
-52 45 -52 -7 0 -28 12 -48 28 -19 15 -47 32 -61 39 -22 10 -22 11 -5 12 11 0
42 -12 69 -27z m73 -112 c59 -34 64 -40 73 -91 7 -36 6 -38 -14 -27 -56 29
-104 70 -110 92 -3 13 -9 31 -12 40 -9 23 4 20 63 -14z m-641 -13 l27 -24 -43
-40 c-33 -31 -42 -44 -36 -59 7 -18 9 -18 23 4 18 25 43 30 43 7 0 -22 7 -19
53 21 23 19 74 51 114 70 61 30 75 33 92 23 16 -10 23 -10 37 2 21 18 38 15
144 -19 110 -35 135 -61 182 -188 36 -100 52 -159 64 -246 l6 -47 -62 -66 -63
-65 -62 0 c-56 0 -85 -11 -85 -32 0 -10 99 -9 125 1 26 11 86 -30 149 -100 39
-44 46 -57 46 -93 0 -60 -10 -71 -50 -57 -18 6 -49 11 -69 11 -39 0 -81 23
-81 44 0 7 -9 21 -20 31 -16 14 -23 16 -32 7 -10 -10 -10 -17 0 -33 9 -15 -1
-10 -34 15 -26 20 -53 36 -60 36 -29 0 -11 -37 36 -72 l48 -37 4 -71 c3 -76 0
-79 -47 -54 -16 8 -51 18 -77 21 -37 4 -48 10 -48 23 0 31 -29 45 -90 43 -49
-3 -60 0 -80 22 -30 32 -71 32 -127 -1 l-43 -25 -27 20 c-43 35 -112 22 -170
-32 -21 -19 -24 -19 -41 -4 -10 10 -32 17 -49 17 -28 0 -31 4 -35 38 -3 20
-23 73 -45 118 -44 89 -63 153 -63 212 0 41 17 59 87 96 31 16 35 15 70 -3 21
-11 53 -35 71 -54 l32 -36 -20 -51 c-24 -61 -22 -73 25 -123 38 -41 45 -40 83
5 29 34 38 35 46 3 10 -40 38 -30 83 32 39 53 41 58 28 83 -8 15 -29 45 -49
68 -19 23 -44 58 -56 77 -28 45 -70 49 -89 9 -10 -23 -14 -24 -28 -13 -9 8
-31 37 -50 66 -30 47 -33 59 -33 128 0 56 -5 86 -20 115 -19 37 -50 55 -50 29
0 -7 -8 -9 -22 -4 -13 3 -30 7 -38 7 -8 0 -19 4 -25 8 -13 10 -80 5 -122 -8
-38 -12 -43 -1 -16 38 9 13 17 36 18 50 0 24 4 26 100 43 161 28 203 31 220
17 8 -7 22 -9 31 -6 9 4 23 1 31 -6 12 -10 17 -9 25 6 7 12 17 16 33 12 13 -3
27 -2 30 4 9 15 21 12 51 -13z m89 13 c-3 -5 -13 -10 -21 -10 -8 0 -14 5 -14
10 0 6 9 10 21 10 11 0 17 -4 14 -10z m-754 -147 l25 -38 -57 -55 c-63 -61
-79 -98 -79 -190 0 -112 20 -130 152 -138 48 -3 88 -8 88 -12 0 -4 -7 -13 -15
-20 -8 -7 -15 -18 -15 -26 0 -16 57 -57 69 -50 5 3 15 -2 22 -12 13 -15 12
-16 -3 -3 -27 21 -34 -12 -11 -51 13 -23 17 -42 13 -63 -11 -50 0 -104 21
-110 30 -10 62 -62 55 -90 -7 -29 -18 -31 -53 -8 -25 17 -26 16 -52 -13 -14
-17 -31 -39 -38 -50 -11 -18 -12 -18 -28 4 -21 28 -31 28 -59 -3 -18 -19 -26
-22 -33 -13 -14 18 -37 134 -30 152 3 8 24 24 46 35 50 26 54 33 40 65 -13 29
-21 31 -49 16 -14 -7 -25 -7 -38 1 -22 14 -61 -6 -150 -78 -29 -24 -57 -43
-63 -43 -16 0 -69 43 -69 56 0 7 32 43 71 81 54 51 77 67 95 65 13 -1 24 2 24
8 0 5 7 10 15 10 9 0 26 7 40 16 18 12 27 13 42 4 25 -16 76 3 71 28 -4 23
-41 27 -106 11 l-53 -12 -49 48 c-28 27 -50 55 -50 63 0 8 -8 27 -17 42 -18
32 -18 34 44 220 14 41 28 89 30 105 4 24 15 37 51 58 26 14 54 27 63 27 9 0
27 -17 40 -37z m1379 -45 c0 -22 -10 -48 -20 -48 -7 0 -17 21 -48 99 -3 8 10
3 31 -10 20 -13 37 -32 37 -41z m-1570 -22 c0 -7 -6 -28 -14 -46 -10 -25 -14
-29 -20 -15 -9 26 -7 50 6 63 16 16 28 15 28 -2z m113 -672 c-17 -14 -50 -43
-74 -64 -24 -21 -47 -36 -52 -33 -12 7 8 28 82 83 66 50 100 61 44 14z m872
-94 c18 -34 21 -204 4 -262 l-10 -38 -58 0 -58 0 -7 73 c-3 39 -9 97 -12 128
-6 56 -6 57 32 93 49 46 87 49 109 6z m-208 5 c22 -15 28 -49 39 -216 l6 -86
-53 -6 c-30 -3 -66 -9 -81 -13 -27 -6 -28 -5 -28 37 0 24 -7 79 -15 122 -14
73 -14 81 2 109 10 17 36 39 58 49 49 23 46 22 72 4z m650 -24 l22 -28 -25
-104 c-57 -234 -60 -360 -18 -604 25 -144 34 -184 71 -294 19 -57 35 -119 36
-138 2 -32 0 -35 -58 -58 -33 -14 -71 -33 -85 -43 -24 -18 -475 -242 -514
-256 -33 -11 -178 16 -245 46 -36 16 -79 35 -95 43 -17 7 -56 21 -86 30 -30
10 -91 33 -135 52 -55 25 -101 37 -146 40 -60 5 -70 9 -98 39 -30 31 -31 36
-22 71 5 21 14 63 20 93 5 30 19 105 31 165 47 240 52 271 46 330 -14 152 -26
262 -31 285 -2 14 -14 77 -26 140 -11 63 -25 120 -31 127 -6 8 -6 18 1 30 8
14 11 15 11 3 1 -21 46 -70 65 -70 9 0 15 9 16 23 0 12 6 0 13 -26 7 -27 18
-53 25 -60 7 -7 11 -79 11 -226 0 -119 5 -243 10 -276 6 -33 13 -113 17 -178
3 -65 10 -120 15 -123 15 -10 38 17 38 44 l0 25 25 -27 c34 -37 63 -33 117 18
44 42 49 44 80 34 26 -8 42 -7 70 5 35 15 37 17 31 53 l-6 37 46 -45 c26 -25
47 -52 47 -61 0 -21 2 -21 45 -3 47 20 45 4 -2 -17 -64 -28 -103 -56 -103 -73
0 -11 6 -14 22 -8 12 3 27 12 34 19 7 6 34 20 60 30 58 21 69 34 46 52 -15 11
-16 12 -1 13 22 0 44 26 29 35 -15 9 -12 35 5 35 8 0 15 -4 15 -8 0 -26 150
-46 165 -22 11 17 19 11 42 -29 36 -62 99 -63 165 -3 l27 25 34 -21 c19 -11
53 -23 76 -27 46 -8 50 0 31 65 -6 19 -11 146 -11 281 -1 253 9 348 39 382 15
17 16 36 8 135 -3 28 -1 52 3 52 4 0 17 -13 28 -29z m-291 -3 c14 -22 -12
-288 -30 -306 -7 -6 -65 8 -71 18 -3 5 -2 72 1 149 8 151 6 147 66 150 15 0
30 -4 34 -11z m-712 -191 c23 -155 22 -182 -10 -204 -15 -10 -37 -29 -50 -42
-13 -13 -26 -22 -27 -20 -10 13 -27 117 -32 195 -6 89 -6 92 25 145 48 82 52
84 66 57 7 -13 19 -72 28 -131z m851 109 c15 -22 15 -29 1 -78 -8 -29 -21 -90
-27 -135 -7 -45 -15 -87 -19 -93 -12 -20 -69 22 -76 55 -7 40 25 258 40 267
24 16 66 8 81 -16z m-485 -266 c0 -72 -34 -438 -42 -447 -19 -23 -65 -15 -103
18 -31 27 -35 37 -35 78 0 82 30 305 43 318 6 7 37 19 67 27 68 18 70 18 70 6z
m133 -7 l38 -6 -3 -216 -3 -216 -38 -3 c-32 -3 -43 2 -74 33 l-36 36 6 170 c4
93 11 179 17 189 11 21 31 24 93 13z m136 -27 c42 -22 50 -38 61 -112 5 -38
14 -87 19 -109 42 -183 45 -204 27 -224 -22 -24 -74 -35 -93 -19 -8 7 -28 35
-44 63 -29 50 -29 50 -29 226 0 97 3 179 7 182 10 10 21 9 52 -7z m-463 -31
c-4 -14 -15 -89 -26 -167 -36 -260 -32 -243 -62 -246 -20 -2 -32 5 -54 33 -24
32 -26 39 -16 73 12 44 30 143 40 227 8 66 16 73 121 104 2 1 0 -10 -3 -24z
m621 -93 c34 -51 39 -64 48 -132 6 -42 16 -94 31 -162 10 -45 -17 -33 -69 30
-17 21 -27 45 -27 66 0 17 -4 36 -8 42 -8 9 -26 78 -37 147 -12 72 17 77 62 9z
m-777 21 c0 -20 -32 -195 -46 -252 -9 -35 -13 -73 -10 -83 7 -29 -3 -47 -33
-62 -33 -17 -51 -10 -51 19 0 13 -5 25 -11 27 -8 3 -7 26 5 82 9 43 16 89 16
102 0 14 9 41 19 62 33 62 111 136 111 105z m2064 -640 c-16 -87 -63 -227
-137 -408 -25 -60 -71 -175 -102 -255 -31 -80 -65 -164 -76 -187 -10 -24 -19
-45 -19 -49 0 -7 -126 -293 -178 -404 -54 -114 -102 -226 -102 -237 0 -5 -20
-39 -44 -77 -69 -107 -44 -122 92 -56 45 21 110 44 144 51 35 6 71 15 80 20
28 14 61 11 55 -5 -7 -18 -129 -178 -182 -237 -115 -131 -301 -594 -335 -834
-6 -44 -16 -109 -21 -143 -5 -35 -7 -83 -4 -107 4 -24 3 -45 -3 -49 -5 -3 -12
21 -16 57 -4 34 -16 93 -26 130 -20 71 -18 110 7 160 19 37 10 65 -13 46 -9
-7 -20 -22 -24 -34 -6 -14 -9 -3 -9 38 -1 58 22 112 63 146 9 7 16 20 16 27 0
26 -27 14 -64 -26 -57 -64 -38 13 21 84 17 20 21 32 14 39 -8 8 -22 1 -47 -24
-34 -32 -36 -32 -29 -9 9 30 50 96 65 105 5 3 10 13 10 21 0 26 -28 15 -59
-23 -17 -21 -31 -34 -31 -30 0 10 58 95 77 115 15 16 17 42 3 42 -5 0 -30 -21
-55 -47 -25 -26 -45 -45 -45 -42 0 17 32 80 65 128 28 40 34 56 25 65 -12 11
-20 4 -69 -62 l-20 -27 9 34 c10 36 55 101 71 101 5 0 9 9 9 20 0 30 -28 25
-61 -11 -16 -18 -32 -29 -35 -26 -18 18 71 137 103 137 20 0 16 30 -4 31 -10
1 -21 1 -25 0 -5 0 -8 13 -8 29 0 20 14 50 38 83 21 29 55 79 77 112 21 33 51
76 67 95 32 40 39 108 13 130 -8 7 -15 22 -15 33 0 41 -42 107 -86 138 -39 27
-44 34 -44 69 0 29 -4 40 -15 40 -11 0 -15 11 -15 38 0 20 -5 44 -10 52 -7 12
-11 10 -18 -10 -9 -24 -10 -24 -17 13 -4 21 -5 87 -2 145 4 59 7 136 7 170 0
81 23 82 26 1 4 -96 15 -179 25 -185 19 -11 22 31 10 131 -11 99 -9 135 10
135 5 0 9 -8 9 -19 0 -32 21 -81 36 -81 10 0 12 14 7 65 -4 46 -2 65 6 65 10
0 16 -59 11 -117 -2 -25 14 -31 26 -11 5 7 11 44 14 83 l5 70 45 24 c25 14 81
52 124 84 43 33 104 72 135 87 81 40 233 168 375 318 33 34 63 62 68 62 5 0 6
-17 2 -37z m-3390 -146 c17 -12 85 -49 151 -83 130 -66 279 -155 352 -210 26
-19 67 -46 92 -60 25 -14 71 -40 101 -59 30 -19 60 -36 65 -38 6 -2 6 -9 -2
-18 -14 -17 9 -295 26 -312 20 -20 34 7 23 45 -16 52 -23 270 -9 265 8 -2 16
-56 22 -154 7 -94 15 -156 23 -166 15 -17 15 -17 -78 -70 -63 -36 -122 -95
-145 -147 l-19 -43 29 -21 c77 -56 87 -69 91 -126 4 -54 47 -236 64 -275 5
-11 19 -45 30 -75 28 -71 94 -194 130 -239 27 -34 61 -135 59 -177 0 -20 -18
21 -39 94 -15 48 -34 70 -45 51 -8 -11 12 -86 27 -103 4 -6 8 -19 8 -31 0 -12
4 -25 9 -31 5 -5 16 -40 26 -79 9 -38 19 -80 22 -92 10 -44 -13 -22 -26 25
-24 81 -69 177 -83 177 -20 0 -14 -30 27 -135 30 -78 70 -230 60 -230 -1 0
-17 30 -35 68 -18 37 -36 69 -40 72 -3 3 -9 13 -13 23 -6 17 -37 25 -37 9 0
-5 14 -35 32 -67 17 -33 44 -95 59 -138 15 -43 30 -81 33 -84 3 -4 6 -13 6
-22 0 -26 -8 -15 -93 133 -21 36 -42 66 -47 66 -19 0 -9 -36 31 -105 78 -136
90 -172 96 -275 5 -85 4 -93 -10 -75 -8 11 -18 36 -22 55 -8 37 -37 107 -61
150 -8 14 -48 91 -90 172 -64 125 -86 157 -141 210 -36 35 -98 104 -137 153
-101 126 -253 283 -319 330 -31 22 -56 43 -57 47 -1 17 306 -39 390 -71 64
-24 100 -27 100 -7 0 33 -45 157 -85 231 -23 44 -66 127 -95 185 -29 58 -61
116 -70 130 -9 14 -38 72 -65 130 -26 58 -64 141 -84 185 -21 44 -47 105 -59
135 -85 219 -104 263 -122 297 -11 21 -20 41 -20 45 0 5 -8 27 -19 51 -69 155
-90 200 -123 264 -52 100 -50 107 19 71 31 -16 71 -39 87 -51z m1253 -237
c-20 -58 -45 -77 -39 -30 3 26 40 90 52 90 4 0 -2 -27 -13 -60z m113 -16 c-11
-26 -24 -43 -27 -40 -8 8 18 89 32 98 19 13 17 -12 -5 -58z m-40 46 c0 -21
-31 -71 -40 -65 -8 5 0 41 16 66 7 12 24 11 24 -1z m706 -16 c4 -11 -62 -55
-70 -46 -8 7 47 62 58 59 6 -2 11 -7 12 -13z m-116 -43 c0 -5 -9 -13 -20 -16
-11 -3 -20 -12 -20 -18 0 -12 -43 -57 -54 -57 -3 0 1 8 8 18 57 70 69 82 77
82 5 0 9 -4 9 -9z m-416 -9 c8 -13 -14 -85 -30 -102 -12 -12 -14 -12 -14 3 0
27 23 107 31 107 5 0 10 -4 13 -8z m-78 -69 c-13 -44 -15 -45 -15 -16 -1 33
21 93 27 75 2 -6 -4 -32 -12 -59z m389 30 c-19 -21 -37 -34 -42 -30 -8 9 46
66 64 66 7 1 -3 -16 -22 -36z m-266 -25 c-16 -30 -29 -20 -17 13 7 22 13 27
19 18 4 -7 3 -21 -2 -31z m191 27 c-7 -8 -19 -15 -27 -15 -13 0 -13 3 -3 15 7
8 19 15 27 15 13 0 13 -3 3 -15z m150 -55 c-6 -11 -15 -18 -21 -14 -6 4 -6 11
2 20 17 21 31 17 19 -6z m-520 -6 c0 -8 -5 -12 -10 -9 -6 4 -8 11 -5 16 9 14
15 11 15 -7z m196 -86 c-13 -37 -15 -39 -16 -15 0 29 18 73 27 64 2 -3 -2 -25
-11 -49z m84 44 c0 -13 -57 -179 -69 -199 -9 -15 -10 -13 -11 14 0 18 4 42 9
55 5 13 16 49 25 81 11 35 22 57 32 57 7 0 14 -4 14 -8z m-273 -23 c6 -6 9
-26 6 -45 -4 -27 -2 -35 13 -40 34 -11 64 -27 64 -35 0 -4 16 -24 35 -43 19
-20 35 -40 35 -44 0 -4 12 -13 28 -20 50 -23 72 -37 72 -44 0 -5 9 -8 19 -8
10 0 22 -7 25 -16 8 -22 20 -11 52 48 38 73 52 98 74 133 10 17 19 37 19 46 1
9 12 28 26 43 27 30 44 26 66 -15 8 -16 5 -17 -23 -13 -31 5 -35 2 -70 -58
-66 -115 -90 -170 -79 -181 7 -7 15 -6 26 3 13 10 15 9 15 -8 0 -28 15 -35 31
-16 11 14 14 13 21 -7 8 -20 10 -21 24 -8 8 8 16 24 18 35 3 10 13 40 22 66
13 35 15 51 7 59 -8 8 -16 0 -29 -30 -15 -35 -34 -54 -34 -35 0 16 62 134 71
134 5 0 9 -17 9 -38 0 -21 5 -43 11 -49 9 -9 6 -19 -10 -41 -12 -17 -20 -44
-20 -63 1 -19 -4 -47 -10 -63 -8 -20 -8 -32 -1 -41 27 -33 -27 -25 -70 10 -22
17 -91 35 -136 35 -50 0 -161 -23 -205 -43 -19 -8 -51 -18 -72 -22 -54 -9 -87
-26 -87 -44 0 -9 -13 7 -29 34 -16 28 -36 57 -46 65 -13 10 -13 15 -3 21 11 7
11 12 0 30 -12 18 -12 23 0 30 83 51 91 64 85 124 -5 47 -3 54 15 58 15 4 19
10 13 24 -16 37 -18 83 -3 83 8 0 19 -5 25 -11z m310 -31 c-9 -18 -18 -42 -20
-53 -4 -18 -5 -17 -6 3 -1 26 27 98 35 89 3 -3 -1 -20 -9 -39z m73 37 c0 -13
-44 -87 -47 -79 -5 15 26 84 37 84 6 0 10 -2 10 -5z m50 -20 c0 -3 -19 -40
-42 -82 -23 -43 -52 -98 -65 -123 -12 -25 -23 -38 -23 -30 0 19 113 240 123
240 4 0 7 -2 7 -5z m-303 -57 c-3 -7 -5 -2 -5 12 0 14 2 19 5 13 2 -7 2 -19 0
-25z m915 -202 c-4 -209 -4 -214 17 -232 38 -33 18 -59 -27 -35 -32 18 -111
31 -181 31 -39 0 -71 4 -71 9 0 5 10 11 23 13 24 3 22 -9 42 258 8 108 12 127
25 114 8 -8 2 -114 -16 -301 -7 -70 -6 -73 15 -73 17 0 21 6 21 28 -2 72 25
352 34 352 8 0 2 -330 -6 -372 -2 -6 4 -13 13 -15 20 -5 29 85 29 286 0 115 2
132 13 116 10 -15 11 -43 6 -115 -9 -122 -10 -259 -3 -288 4 -14 13 -22 22
-20 14 3 15 31 13 221 -2 158 1 222 9 232 7 8 15 13 19 10 4 -2 5 -101 3 -219z
m-1535 183 c-2 -12 0 -45 5 -73 5 -28 11 -78 14 -110 2 -32 7 -63 10 -67 3 -5
-1 -9 -8 -9 -8 0 -21 13 -31 29 -24 40 -25 251 -2 251 10 0 14 -8 12 -21z
m660 -1 c-3 -8 -6 -5 -6 6 -1 11 2 17 5 13 3 -3 4 -12 1 -19z m-583 -70 c4
-40 8 -90 10 -110 2 -20 7 -41 11 -47 3 -6 1 -11 -4 -11 -18 0 -26 5 -23 13 1
5 -4 27 -12 50 -7 23 -17 72 -21 110 -6 62 -5 67 13 67 17 0 20 -10 26 -72z
m743 50 c-3 -8 -6 -5 -6 6 -1 11 2 17 5 13 3 -3 4 -12 1 -19z m-690 -86 c1
-55 -2 -80 -7 -67 -15 35 -11 155 4 155 1 0 2 -39 3 -88z m643 80 c0 -5 -6
-17 -14 -27 -13 -18 -14 -18 -9 8 5 24 23 39 23 19z m527 -69 c-3 -10 -5 -2
-5 17 0 19 2 27 5 18 2 -10 2 -26 0 -35z m-1081 -9 c0 -14 -3 -27 -8 -30 -4
-3 -8 12 -8 32 0 40 13 39 16 -2z m97 -47 c-10 -19 -23 8 -22 46 l1 42 12 -40
c7 -22 11 -43 9 -48z m74 61 c-3 -8 -6 -5 -6 6 -1 11 2 17 5 13 3 -3 4 -12 1
-19z m800 -50 c-3 -8 -6 -5 -6 6 -1 11 2 17 5 13 3 -3 4 -12 1 -19z m-80 -11
c18 -13 7 -26 -17 -20 -14 4 -20 0 -20 -12 0 -11 6 -15 18 -11 49 14 70 17 76
8 7 -12 -14 -64 -23 -59 -3 1 -25 11 -48 22 -43 20 -48 30 -37 72 6 22 23 22
51 0z m-960 -83 c-3 -3 -12 -4 -19 -1 -8 3 -5 6 6 6 11 1 17 -2 13 -5z m1055
-31 c-6 -15 -13 -37 -15 -48 -3 -12 -5 -7 -6 13 0 18 4 41 11 52 17 27 23 16
10 -17z m45 15 c-3 -8 -6 -5 -6 6 -1 11 2 17 5 13 3 -3 4 -12 1 -19z m-916
-66 c16 -18 29 -39 29 -47 0 -9 -22 -37 -49 -63 -74 -71 -161 -184 -161 -210
0 -12 6 -33 14 -45 8 -12 17 -37 21 -56 8 -38 106 -280 158 -391 20 -41 54
-101 77 -134 45 -64 45 -63 -15 -117 -24 -22 -28 -30 -17 -40 10 -11 20 -6 51
25 28 28 45 37 57 32 15 -6 12 -13 -24 -45 -40 -37 -55 -71 -31 -71 6 0 22 14
36 30 35 43 42 37 24 -20 -16 -49 -16 -50 -51 -44 -47 9 -134 76 -159 122 -7
12 -36 33 -65 46 -62 28 -137 102 -180 179 -47 85 -76 144 -76 156 0 7 -9 30
-20 53 -11 23 -32 89 -46 146 -21 84 -25 118 -20 167 6 62 6 62 -29 89 -19 15
-35 33 -35 40 0 8 -7 19 -15 26 -8 7 -15 18 -15 24 0 39 186 157 276 175 27 5
91 9 142 8 92 -2 94 -3 123 -35z m779 8 c0 -11 -4 -20 -10 -20 -5 0 -10 9 -10
20 0 11 5 20 10 20 6 0 10 -9 10 -20z m37 -27 c-3 -10 -5 -4 -5 12 0 17 2 24
5 18 2 -7 2 -21 0 -30z m90 -10 c-3 -10 -5 -4 -5 12 0 17 2 24 5 18 2 -7 2
-21 0 -30z m-711 -16 c-10 -7 -31 -22 -46 -34 -32 -27 -50 -29 -50 -8 0 8 6
15 13 15 7 0 31 9 53 20 43 21 59 25 30 7z m431 -13 c40 -8 78 -13 85 -12 6 2
14 -5 16 -14 4 -19 -17 -23 -52 -9 -25 10 -157 -31 -171 -53 -15 -24 2 -31 37
-13 54 26 114 40 137 32 l23 -7 -21 -15 c-31 -21 -26 -31 16 -35 30 -2 38 -8
44 -30 6 -24 4 -28 -22 -33 -51 -11 -243 -22 -269 -15 -28 7 -39 43 -19 66 9
11 9 18 -4 32 -10 11 -13 27 -10 46 5 24 0 34 -27 56 l-34 27 100 -4 c54 -3
132 -11 171 -19z m230 -6 c-3 -8 -6 -5 -6 6 -1 11 2 17 5 13 3 -3 4 -12 1 -19z
m-512 -22 l30 -24 -23 -69 c-12 -38 -22 -74 -22 -80 0 -6 21 -24 48 -39 37
-21 59 -27 104 -26 59 1 233 25 303 42 22 5 50 10 61 10 20 0 21 -3 14 -32
-31 -128 -115 -330 -241 -583 -81 -160 -103 -195 -123 -195 -6 1 -1 9 12 20
17 14 20 21 9 27 -7 4 -13 25 -12 48 l0 40 -50 5 -50 5 -2 40 c0 22 -6 72 -12
110 -15 97 -51 415 -51 452 0 17 -9 41 -19 54 -18 22 -20 23 -27 6 -4 -11 -2
-50 5 -88 6 -38 15 -99 20 -136 6 -38 15 -103 21 -145 12 -80 9 -98 -15 -98
-17 0 -65 -61 -65 -83 0 -28 16 -19 48 24 17 22 33 36 36 31 5 -9 -19 -47 -52
-81 -32 -33 -45 -62 -34 -73 9 -9 17 -7 32 7 11 10 20 13 20 7 0 -7 -4 -12 -9
-12 -17 0 -21 -45 -5 -57 13 -9 13 -15 4 -33 -13 -24 -2 -44 16 -32 7 4 19 24
27 45 9 20 21 37 26 37 16 0 13 -62 -4 -84 -18 -24 -19 -46 -2 -46 41 -1 71
-74 37 -90 -8 -4 -30 -15 -49 -25 -19 -10 -31 -13 -27 -6 15 23 -24 23 -45 0
l-20 -24 5 68 c4 54 3 67 -9 67 -9 0 -15 10 -15 25 0 13 -6 28 -14 32 -34 20
-148 176 -184 253 -82 172 -152 361 -152 407 0 15 13 37 33 57 18 17 71 68
118 113 148 143 238 181 304 129z m755 -76 c188 -37 280 -93 296 -182 4 -18
14 -46 23 -61 15 -26 15 -29 -1 -38 -10 -6 -18 -20 -18 -31 0 -12 -11 -38 -24
-57 -128 -194 -134 -203 -201 -297 -56 -79 -51 -73 -130 -138 -118 -98 -156
-139 -150 -164 5 -22 4 -23 -25 -17 -51 11 -94 -2 -174 -55 -42 -28 -80 -50
-85 -50 -23 0 -16 30 10 49 25 19 33 20 46 9 13 -11 21 -6 54 31 87 97 222
341 212 381 -3 9 10 48 27 86 17 38 40 87 50 109 9 22 15 45 13 52 -12 31 -32
8 -58 -64 -29 -80 -116 -255 -141 -284 -8 -8 -14 -21 -14 -27 0 -7 -4 -12 -8
-12 -4 0 -16 -13 -25 -30 -10 -16 -23 -30 -29 -30 -22 0 -46 31 -40 52 4 17
10 19 43 14 48 -8 53 11 9 36 -36 20 -38 33 -7 49 30 16 30 15 16 38 -11 16
-11 27 -2 53 7 18 15 53 18 78 6 39 50 177 75 235 5 11 24 58 42 105 l34 85
-23 34 c-12 18 -20 37 -17 42 7 11 145 11 204 -1z m-360 -600 c0 -5 -5 -10
-11 -10 -5 0 -7 5 -4 10 3 6 8 10 11 10 2 0 4 -4 4 -10z m-20 -55 c0 -8 -7
-15 -15 -15 -16 0 -20 12 -8 23 11 12 23 8 23 -8z m520 -10 c0 -8 -11 -25 -25
-39 -29 -29 -33 -17 -8 25 19 31 33 38 33 14z m-880 -11 c0 -3 -9 -17 -20 -31
-22 -28 -28 -15 -8 17 12 19 28 27 28 14z m325 -64 c-5 -8 -11 -8 -17 -2 -6 6
-7 16 -3 22 5 8 11 8 17 2 6 -6 7 -16 3 -22z m-315 4 c0 -3 -5 -14 -10 -25
-16 -28 -32 -23 -18 6 10 22 28 35 28 19z m429 -101 c-52 -81 -79 -116 -98
-128 -8 -4 5 18 28 51 24 32 57 80 75 106 48 72 44 48 -5 -29z m-149 37 c0 -5
-4 -10 -10 -10 -5 0 -10 5 -10 10 0 6 5 10 10 10 6 0 10 -4 10 -10z m-190 -30
c-20 -13 -40 -13 -40 0 0 6 12 10 28 10 21 0 24 -2 12 -10z m250 -55 c-10 -19
-17 -22 -31 -14 -25 13 -24 28 1 22 13 -3 22 1 26 11 4 9 9 14 12 11 3 -3 -1
-16 -8 -30z m-244 0 c-11 -8 -27 -15 -35 -15 -10 0 -7 6 9 14 33 19 50 19 26
1z m594 -56 c0 -22 -4 -38 -9 -35 -11 7 -23 65 -15 77 11 19 24 -3 24 -42z
m-61 -6 c14 -50 14 -51 -7 -57 -10 -3 -26 -20 -36 -37 -12 -20 -22 -27 -28
-21 -17 17 -5 56 19 62 16 3 20 9 14 19 -10 15 6 71 20 71 4 0 13 -17 18 -37z
m-339 7 c0 -5 -7 -10 -15 -10 -8 0 -15 5 -15 10 0 6 7 10 15 10 8 0 15 -4 15
-10z m-100 -20 c0 -5 -5 -10 -11 -10 -5 0 -7 5 -4 10 3 6 8 10 11 10 2 0 4 -4
4 -10z m-330 -27 c0 -5 -5 -15 -10 -23 -8 -12 -10 -11 -10 8 0 12 5 22 10 22
6 0 10 -3 10 -7z m373 -8 c-3 -9 -8 -14 -10 -11 -3 3 -2 9 2 15 9 16 15 13 8
-4z m544 -17 c-3 -8 -6 -5 -6 6 -1 11 2 17 5 13 3 -3 4 -12 1 -19z m-1151 -19
c28 -30 28 -31 10 -45 -28 -20 -33 -18 -45 17 -23 66 -11 76 35 28z m522 13
c6 -18 -15 -14 -22 4 -4 10 -1 14 6 12 6 -2 14 -10 16 -16z m350 -14 c20 -20
14 -27 -21 -21 -48 7 -123 -30 -153 -78 -13 -21 -24 -43 -24 -49 0 -5 -4 -10
-10 -10 -13 0 -13 33 1 64 11 24 61 62 119 93 31 16 72 17 88 1z m-403 -8 c3
-5 -3 -10 -15 -10 -12 0 -18 5 -15 10 3 6 10 10 15 10 5 0 12 -4 15 -10z
m-588 -52 c-3 -7 -5 -2 -5 12 0 14 2 19 5 13 2 -7 2 -19 0 -25z m249 7 l29
-15 -48 0 c-28 0 -59 -7 -75 -17 -27 -17 -27 -17 -12 2 36 48 60 54 106 30z
m212 -42 c-24 -38 -43 -81 -51 -118 -3 -13 -5 -9 -6 11 -1 29 34 109 61 138
24 25 21 7 -4 -31z m-54 13 c-3 -9 -10 -16 -15 -16 -14 0 -11 28 4 33 16 6 19
3 11 -17z m209 12 c32 -10 43 -20 58 -52 18 -40 25 -97 13 -108 -3 -3 -19 1
-36 10 -22 10 -36 12 -47 5 -11 -7 -21 -7 -32 0 -12 8 -26 5 -54 -12 -21 -12
-40 -19 -43 -17 -20 20 11 120 51 164 23 25 34 27 90 10z m385 -23 c31 -35 46
-82 38 -120 -3 -11 -5 -23 -5 -27 -1 -5 -9 -8 -19 -8 -10 0 -23 -5 -29 -11 -9
-9 -10 -7 -6 10 7 28 -12 27 -53 -4 -36 -27 -44 -30 -44 -15 0 5 14 16 30 25
17 9 30 22 30 30 0 22 -18 18 -53 -11 l-31 -26 -15 31 c-21 45 -2 100 46 134
50 36 75 34 111 -8z m185 -16 c41 0 47 -2 30 -9 -16 -7 -24 -21 -29 -50 -4
-22 -10 -40 -15 -40 -5 0 -8 5 -6 11 5 24 -23 19 -34 -5 -16 -34 -38 -34 -31
-1 2 15 0 25 -7 25 -6 0 -11 18 -11 45 0 44 0 44 26 35 14 -6 49 -10 77 -11z
m-903 -14 c6 -8 18 -36 26 -62 15 -48 15 -48 -13 -70 -15 -13 -32 -23 -38 -23
-5 0 -2 5 8 11 9 5 17 17 17 25 0 21 -80 12 -122 -14 -41 -25 -48 -21 -48 25
0 38 12 67 43 101 25 26 107 32 127 7z m1010 5 c0 -5 -4 -10 -10 -10 -5 0 -10
5 -10 10 0 6 5 10 10 10 6 0 10 -4 10 -10z m-931 -37 c0 -16 -3 -22 -6 -13 -3
8 -10 21 -16 28 -7 8 -5 12 7 12 11 0 16 -8 15 -27z m-290 -35 c-5 -18 -9 -45
-9 -61 0 -16 -7 -30 -16 -34 -11 -4 -14 -13 -10 -29 7 -27 -18 -35 -28 -9 -3
8 -13 15 -22 15 -12 0 -15 -7 -12 -30 3 -16 2 -30 -2 -30 -17 0 -30 29 -30 67
0 42 2 45 56 79 30 19 58 42 61 50 11 28 21 13 12 -18z m759 -110 c12 -12 39
-28 60 -34 l37 -12 -57 -1 c-70 -1 -103 25 -94 73 3 16 7 43 7 60 1 27 3 25
13 -16 6 -26 21 -58 34 -70z m-88 57 c0 -89 -185 -154 -257 -90 l-28 25 30
-11 c65 -25 97 -28 138 -13 48 17 97 60 97 84 0 15 8 30 17 30 2 0 3 -11 3
-25z m557 -7 c-3 -8 -6 -5 -6 6 -1 11 2 17 5 13 3 -3 4 -12 1 -19z m-927 -25
c0 -30 -33 -84 -60 -98 -34 -18 -109 -25 -136 -13 -11 5 -26 18 -32 29 -12 18
-11 19 7 10 11 -6 36 -11 56 -11 58 0 145 56 145 92 0 11 5 16 10 13 6 -3 10
-13 10 -22z m180 17 c0 -5 -6 -10 -14 -10 -8 0 -16 -5 -18 -12 -3 -7 -9 -8
-18 -3 -11 7 -7 12 15 21 37 16 35 16 35 4z m114 -4 c-3 -7 -16 -18 -30 -24
-19 -9 -24 -9 -24 2 0 12 10 18 57 35 1 1 0 -5 -3 -13z m-494 -36 c-8 -5 -17
-7 -19 -4 -3 3 1 9 9 14 8 5 17 7 19 4 3 -3 -1 -9 -9 -14z m405 10 c3 -5 -3
-10 -15 -10 -12 0 -18 5 -15 10 3 6 10 10 15 10 5 0 12 -4 15 -10z m-339 -15
c-8 -8 -18 -15 -22 -15 -3 0 -1 7 6 15 7 8 17 15 22 15 5 0 3 -7 -6 -15z m168
-49 c-22 -17 -32 -3 -13 20 8 10 15 12 23 4 7 -7 4 -14 -10 -24z m352 -11 c3
-8 14 -17 24 -20 21 -7 93 -75 79 -75 -6 0 -7 -14 -3 -37 6 -31 4 -35 -9 -30
-22 8 -40 -26 -32 -63 3 -15 2 -37 -4 -47 -18 -31 -57 -126 -80 -191 -13 -34
-29 -75 -37 -90 -8 -15 -14 -33 -14 -40 0 -7 -5 -23 -11 -34 -11 -20 -11 -20
-35 6 -14 14 -35 26 -47 26 -60 0 -232 321 -248 461 -6 54 25 87 103 110 31 8
46 -4 29 -25 -13 -15 -8 -156 8 -212 12 -43 45 -94 62 -94 19 0 21 31 4 44
-33 24 -59 225 -32 258 13 17 142 33 151 19 3 -4 -6 -46 -21 -92 -42 -136 -37
-129 -62 -89 -22 36 -28 104 -11 115 17 11 11 35 -9 35 -15 0 -22 -12 -32 -54
-11 -50 -10 -58 11 -101 17 -35 27 -45 41 -42 20 5 29 -11 29 -55 0 -23 4 -29
18 -26 13 3 18 17 23 73 7 77 28 145 66 217 14 25 22 51 19 57 -4 6 -2 11 4
11 6 0 13 -7 16 -15z m-451 -65 c-3 -5 -12 -10 -18 -10 -7 0 -6 4 3 10 19 12
23 12 15 0z m-61 -32 c-46 -79 -227 -274 -244 -263 -6 3 -10 13 -10 22 0 24
23 87 35 95 5 3 41 29 79 57 38 28 73 51 79 51 5 0 20 11 33 25 24 26 40 33
28 13z m854 -32 c26 -13 70 -31 98 -40 47 -15 50 -18 46 -46 -2 -16 3 -43 11
-59 9 -17 13 -31 9 -31 -3 0 -40 33 -83 73 -43 39 -93 84 -111 99 -41 34 -32
35 30 4z m202 -73 c0 -5 -5 -15 -10 -23 -8 -12 -10 -11 -10 8 0 12 5 22 10 22
6 0 10 -3 10 -7z m54 -22 c8 -12 -31 -101 -44 -101 -13 0 -13 -3 5 58 15 50
27 63 39 43z m-1399 -180 c3 -5 1 -12 -5 -16 -5 -3 -10 1 -10 9 0 18 6 21 15
7z m-55 -55 c0 -7 -6 -19 -14 -25 -11 -9 -12 -6 -8 14 5 26 22 35 22 11z
m3309 -69 c-73 -51 -112 -66 -94 -37 9 14 87 51 94 44 2 -2 2 -5 0 -7z m-14
-63 c-22 -15 -61 -47 -87 -72 -27 -26 -48 -42 -48 -36 0 15 109 114 125 114 8
0 15 5 15 10 0 6 8 10 17 10 11 0 2 -10 -22 -26z m101 -56 c9 -18 34 -58 55
-88 34 -51 209 -319 295 -453 20 -32 35 -59 33 -60 -2 -2 -17 -7 -34 -13 -38
-12 -39 -38 -2 -42 15 -2 27 -7 27 -12 0 -5 9 -11 19 -15 12 -3 18 -12 15 -20
-4 -10 5 -15 32 -17 25 -2 42 -10 52 -26 15 -23 14 -23 -11 -17 -29 8 -38 -10
-16 -32 8 -8 2 -13 -23 -18 -18 -4 -45 -16 -60 -26 -14 -11 -30 -19 -35 -19
-4 0 -25 -11 -45 -25 -20 -14 -39 -25 -42 -25 -10 0 18 55 41 81 26 28 29 39
11 39 -16 0 -78 -61 -78 -77 0 -7 -9 -13 -21 -13 -18 0 -20 4 -14 27 3 15 24
52 46 82 55 78 34 93 -29 21 -26 -30 -62 -71 -80 -90 l-32 -35 6 30 c4 17 10
32 13 35 3 3 13 18 21 34 8 16 32 48 54 73 39 45 42 60 9 49 -15 -6 -47 -44
-108 -131 -12 -16 -14 -17 -15 -4 0 9 13 36 30 60 16 24 30 47 30 52 0 17 -27
5 -53 -25 -27 -32 -28 -32 -24 -8 2 14 8 33 12 43 13 30 -24 20 -43 -13 -39
-68 -44 -9 -6 68 14 29 30 54 35 58 13 7 11 34 -2 34 -14 0 -48 -43 -78 -100
-13 -25 -32 -60 -41 -77 -9 -18 -20 -30 -23 -27 -13 14 39 163 75 216 16 23 5
32 -20 17 -23 -15 -62 -79 -62 -103 0 -9 -5 -16 -10 -16 -16 0 -1 81 20 111
23 33 10 59 -30 59 -18 0 -34 8 -44 22 -21 30 -22 131 -1 148 15 12 12 30 -5
30 -16 0 -50 -43 -50 -64 0 -15 -3 -17 -11 -9 -15 15 6 104 38 160 28 49 96
123 112 123 6 0 11 7 11 15 0 30 -32 14 -89 -44 -51 -52 -101 -132 -101 -161
0 -5 -7 -10 -15 -10 -45 0 18 114 110 198 37 34 65 52 76 49 9 -3 23 -1 30 4
22 14 27 11 45 -23z m-2713 -20 c18 -17 28 -42 36 -89 16 -95 15 -116 -9 -122
-18 -5 -20 -14 -21 -84 l-2 -78 -8 105 c-4 58 -10 129 -13 158 -4 32 -2 52 4
52 16 0 12 37 -6 54 -8 9 -20 14 -25 11 -5 -4 -9 -1 -9 4 0 18 28 12 53 -11z
m2433 -100 c-19 -26 -20 -20 -5 19 6 15 13 22 16 16 2 -7 -3 -23 -11 -35z
m-2311 -223 c7 -244 -3 -200 -21 90 -5 73 -3 97 5 90 7 -7 13 -76 16 -180z
m-354 112 c-10 -9 -11 -8 -5 6 3 10 9 15 12 12 3 -3 0 -11 -7 -18z m293 -117
c12 -114 16 -356 6 -332 -5 13 -12 87 -15 165 -3 78 -8 164 -10 191 -5 66 12
45 19 -24z m2704 -418 c-2 -4 -10 -24 -17 -44 -16 -39 -43 -61 -34 -27 4 13 0
19 -11 19 -23 0 -20 30 5 56 17 19 26 21 41 13 11 -6 18 -13 16 -17z m88 -159
c-11 -11 -19 6 -11 24 8 17 8 17 12 0 3 -10 2 -21 -1 -24z"/>
<path d="M5550 7276 c0 -34 15 -57 22 -34 6 18 -3 68 -13 68 -5 0 -9 -15 -9
-34z"/>
<path d="M5878 7033 c-42 -44 -70 -105 -69 -149 1 -68 63 -185 116 -220 46
-30 175 -56 244 -49 80 9 98 17 138 66 23 29 34 54 39 97 18 135 8 160 -87
217 -51 32 -73 39 -133 43 -39 3 -74 10 -78 16 -5 8 -11 7 -20 -2 -17 -17 -67
-15 -74 3 -10 25 -38 17 -76 -22z m47 -13 c-3 -5 -12 -10 -18 -10 -7 0 -6 4 3
10 19 12 23 12 15 0z"/>
<path d="M5673 5246 c-34 -11 -65 -24 -69 -29 -4 -4 -16 -7 -26 -7 -10 0 -18
-4 -18 -10 0 -5 -8 -10 -19 -10 -25 0 -48 -27 -34 -41 7 -7 29 -2 69 17 33 16
86 38 119 50 33 11 60 27 60 34 0 20 -15 20 -82 -4z"/>
<path d="M5423 5245 c-3 -9 -3 -19 1 -22 9 -10 58 16 51 27 -10 16 -45 12 -52
-5z"/>
<path d="M5905 5219 c-10 -15 3 -25 16 -12 7 7 7 13 1 17 -6 3 -14 1 -17 -5z"/>
<path d="M5830 5210 c-13 -9 -13 -11 0 -20 9 -6 18 -6 24 0 15 15 -6 31 -24
20z"/>
<path d="M5690 5173 c-32 -6 -41 -15 -32 -30 10 -16 78 1 86 22 6 15 -4 17
-54 8z"/>
<path d="M4678 4439 c-5 -16 8 -158 16 -166 16 -16 22 18 18 95 -3 59 -8 82
-17 82 -7 0 -15 -5 -17 -11z"/>
<path d="M5487 1933 c-13 -21 -73 -138 -134 -260 -62 -122 -125 -245 -141
-275 -36 -65 -82 -180 -82 -205 0 -23 14 3 151 272 61 121 114 225 119 230 4
6 31 55 60 110 29 55 59 109 67 120 17 26 17 45 -2 45 -8 0 -25 -17 -38 -37z"/>
<path d="M6018 1905 c-3 -4 -2 -18 3 -33 92 -284 129 -379 137 -348 4 18 -14
89 -28 111 -3 6 -14 37 -24 70 -10 33 -22 68 -27 77 -5 10 -9 26 -9 36 0 10
-4 22 -9 28 -5 5 -11 20 -13 33 -3 24 -19 37 -30 26z"/>
<path d="M6383 1624 c-3 -9 7 -31 24 -52 16 -20 45 -66 65 -102 55 -102 79
-143 102 -175 34 -47 46 -75 46 -104 0 -23 -10 -33 -61 -63 -36 -21 -81 -39
-110 -43 -60 -8 -165 3 -177 18 -5 7 -17 53 -26 103 -22 116 -39 167 -52 154
-7 -7 -2 -42 13 -103 12 -50 23 -107 23 -125 0 -40 23 -87 47 -96 106 -41 229
-10 356 90 43 35 38 86 -18 170 -25 37 -62 99 -83 138 -20 39 -40 73 -44 74
-5 2 -8 8 -8 13 0 15 -64 108 -78 114 -7 2 -15 -2 -19 -11z"/>
<path d="M5236 1119 c-11 -17 -12 -25 -3 -40 15 -25 33 -18 29 11 -1 12 3 29
9 36 9 11 8 14 -4 14 -9 0 -23 -10 -31 -21z"/>
<path d="M5050 930 c0 -15 5 -20 18 -18 9 2 17 10 17 18 0 8 -8 16 -17 18 -13
2 -18 -3 -18 -18z"/>
<path d="M5935 779 c-4 -5 3 -33 15 -61 38 -89 80 -294 95 -463 5 -62 27 -188
41 -237 3 -11 15 -18 30 -18 13 0 24 1 24 3 0 1 -10 30 -21 62 -12 33 -26 100
-30 150 -5 50 -13 122 -19 160 -6 39 -14 95 -19 125 -31 205 -84 332 -116 279z"/>
<path d="M6970 531 c-8 -6 -20 -38 -26 -73 -23 -121 -50 -213 -65 -214 -8 -1
-20 -2 -26 -3 -7 0 -13 -6 -13 -12 0 -6 -27 -51 -60 -101 -83 -124 -85 -128
-61 -128 13 0 34 24 67 78 26 42 59 90 72 107 l25 30 -8 -35 c-4 -19 -13 -42
-19 -50 -7 -8 -27 -41 -44 -72 -27 -49 -30 -58 -15 -58 10 0 28 12 41 28 l23
27 -6 -28 c-4 -21 -2 -27 13 -27 11 0 62 56 137 150 65 83 120 150 122 150 13
0 -3 -31 -30 -60 -18 -19 -39 -45 -47 -57 -8 -11 -43 -58 -78 -102 -58 -75
-61 -81 -38 -81 18 0 37 18 78 73 30 39 91 121 136 180 45 59 82 114 82 122 0
20 -36 19 -44 -1 -3 -8 -10 -13 -15 -10 -18 12 -42 -8 -103 -83 -123 -153
-172 -200 -162 -153 16 76 56 243 65 270 6 17 11 46 11 63 1 22 8 34 25 42 13
6 22 15 20 21 -5 15 -38 18 -57 7z"/>
<path d="M6300 482 c0 -22 35 -62 55 -62 24 0 17 37 -11 59 -33 26 -44 26 -44
3z"/>
<path d="M6642 448 c-7 -7 -12 -16 -12 -22 0 -5 -26 -50 -58 -100 -57 -87
-172 -301 -172 -318 0 -4 8 -8 19 -8 12 0 25 14 36 38 41 89 106 211 143 269
64 100 83 134 77 143 -8 13 -18 13 -33 -2z"/>
<path d="M5384 422 c-14 -10 -38 -98 -29 -111 12 -20 35 -12 35 13 0 12 5 38
11 55 12 33 3 56 -17 43z"/>
<path d="M5586 318 c-2 -12 -9 -54 -16 -93 -6 -38 -16 -90 -21 -115 -23 -104
-23 -110 0 -110 17 0 21 6 21 31 0 17 4 28 10 24 6 -3 10 -17 10 -31 0 -22 4
-24 49 -24 l50 0 -4 33 c-16 127 -15 141 8 165 21 22 21 24 4 36 -9 7 -28 11
-41 9 -28 -6 -51 26 -43 58 3 10 -1 23 -9 30 -10 8 -14 6 -18 -13z"/>
<path d="M6798 266 c-18 -30 -63 -100 -100 -155 -38 -56 -68 -103 -68 -106 0
-3 8 -5 18 -5 20 0 212 288 205 308 -9 22 -22 13 -55 -42z"/>
<path d="M5300 204 c-7 -16 -14 -44 -17 -61 -6 -38 -9 -39 -31 -17 -15 16 -17
15 -28 -12 -6 -16 -14 -48 -17 -72 -7 -60 14 -54 35 10 l17 53 -5 -53 c-4 -47
-3 -52 16 -52 14 0 20 7 21 23 0 12 6 38 14 57 13 34 13 34 8 -23 -6 -58 -5
-59 18 -55 21 3 25 11 34 67 9 53 14 65 33 72 30 11 23 33 -11 37 -21 3 -29
-3 -44 -30 -16 -30 -18 -31 -21 -11 -2 12 2 32 8 44 10 17 9 24 -4 37 -14 14
-16 13 -26 -14z"/>
<path d="M5386 103 c-3 -10 -5 -37 -4 -60 2 -35 6 -43 21 -43 17 0 19 5 13 37
-3 21 -6 48 -6 61 0 26 -16 30 -24 5z"/>
</g>
</svg>
