<?xml version="1.0" standalone="no"?>
<!DOCTYPE svg PUBLIC "-//W3C//DTD SVG 20010904//EN"
 "http://www.w3.org/TR/2001/REC-SVG-20010904/DTD/svg10.dtd">
<svg version="1.0" xmlns="http://www.w3.org/2000/svg"
 width="840.000000pt" height="859.000000pt" viewBox="0 0 840.000000 859.000000"
 preserveAspectRatio="xMidYMid meet">
<metadata>
Created by potrace 1.16, written by Peter Selinger 2001-2019
</metadata>
<g transform="translate(0.000000,859.000000) scale(0.100000,-0.100000)"
fill="#000000" stroke="none">
<path d="M4122 8545 c-44 -9 -68 -19 -78 -34 -10 -14 -26 -21 -47 -21 -61 0
-265 -84 -365 -151 -24 -16 -46 -29 -49 -29 -4 0 -14 -7 -24 -16 -13 -12 -21
-13 -31 -5 -40 34 -92 71 -100 71 -4 0 -1 -17 8 -37 40 -95 40 -94 3 -122 -18
-14 -44 -37 -56 -50 -21 -22 -26 -23 -49 -11 -14 8 -45 33 -71 57 -25 24 -49
43 -55 43 -12 0 -3 -44 27 -126 l22 -62 -43 -48 c-24 -27 -46 -57 -50 -66 -7
-22 -30 -23 -38 -3 -3 8 -13 15 -22 15 -15 0 -14 -4 6 -24 24 -27 24 -30 -15
-91 -14 -22 -46 -83 -71 -135 -25 -52 -49 -102 -54 -111 -5 -9 -13 -34 -19
-57 -7 -23 -21 -47 -36 -56 -32 -21 -32 -46 0 -76 21 -19 23 -26 12 -44 -16
-28 -17 -367 -1 -387 13 -17 45 -103 43 -115 -3 -20 2 -34 20 -51 11 -10 40
-60 66 -110 26 -51 51 -93 56 -93 4 0 10 -9 14 -19 9 -31 168 -185 232 -226
32 -20 70 -46 85 -56 15 -11 32 -19 38 -19 6 0 28 -18 50 -40 23 -24 49 -40
62 -40 13 0 32 -6 43 -13 51 -35 222 -87 325 -98 52 -6 101 -13 108 -15 16 -5
14 -54 -7 -139 -16 -66 -18 -70 -43 -67 -14 1 -63 23 -108 49 -71 40 -84 44
-106 34 -52 -24 -109 -11 -204 44 -31 18 -48 18 -79 2 -21 -11 -34 -7 -119 34
-218 107 -436 116 -607 26 -43 -23 -153 -122 -208 -189 -55 -66 -141 -200
-188 -293 -28 -56 -42 -71 -103 -112 -39 -27 -75 -51 -81 -56 -62 -47 -127
-95 -145 -107 -32 -22 -126 -94 -143 -111 -8 -8 -35 -30 -59 -49 -23 -19 -101
-91 -171 -160 -119 -115 -133 -126 -183 -137 -76 -18 -121 -43 -182 -105 -162
-164 -306 -501 -278 -651 14 -77 161 -186 236 -175 18 3 62 -4 99 -14 92 -26
269 -55 371 -61 82 -5 87 -4 135 26 123 75 301 184 315 190 8 5 33 19 55 32
22 14 51 30 65 37 14 7 27 15 30 18 3 3 16 11 30 18 14 7 45 24 70 38 25 14
70 39 100 55 30 17 74 41 97 54 l43 23 10 -38 c22 -81 44 -333 47 -540 l3
-215 -52 -30 c-78 -45 -100 -83 -97 -170 3 -66 1 -74 -34 -128 -20 -31 -37
-61 -37 -66 0 -5 -4 -11 -8 -13 -5 -1 -64 -99 -133 -216 -68 -118 -134 -230
-146 -250 -33 -58 -48 -83 -83 -147 -18 -33 -48 -84 -67 -113 -18 -29 -33 -54
-33 -56 0 -3 -23 -44 -51 -93 -28 -48 -55 -97 -60 -108 -5 -11 -20 -38 -32
-60 -32 -55 -111 -201 -139 -255 -13 -25 -27 -48 -33 -52 -5 -3 -45 -28 -88
-55 -75 -46 -225 -151 -257 -179 -8 -7 -40 -34 -70 -60 -92 -78 -229 -215
-259 -258 -81 -119 -79 -264 5 -397 47 -76 208 -226 359 -337 36 -26 96 -62
104 -62 5 0 11 -4 13 -9 2 -4 36 -24 76 -44 l72 -35 73 72 c146 146 309 336
386 449 17 26 36 47 40 47 14 0 146 -145 184 -203 54 -81 105 -189 118 -247
16 -76 17 -83 18 -107 1 -23 50 -52 114 -67 15 -3 27 -11 27 -18 0 -6 -20 -52
-44 -102 -24 -50 -46 -101 -50 -113 l-7 -23 175 0 176 0 45 46 c25 26 45 51
45 57 0 26 -132 -14 -197 -60 -17 -13 -34 -23 -37 -23 -12 0 -5 114 10 168 9
32 34 94 56 140 l40 82 34 -6 c30 -5 35 -3 53 27 30 51 34 54 97 73 128 37
161 45 219 51 l60 6 -80 -34 c-86 -36 -119 -54 -205 -109 -49 -32 -91 -68 -78
-68 3 0 31 9 64 21 68 24 225 61 232 54 4 -4 -204 -105 -218 -105 -4 0 -7 -22
-7 -50 0 -27 2 -50 3 -50 1 0 33 15 70 34 74 37 170 71 221 80 l31 5 -25 -27
c-27 -30 -47 -62 -38 -62 4 0 38 28 76 63 80 72 63 67 374 86 99 6 227 15 285
21 58 5 195 14 305 20 110 6 214 12 231 14 29 4 54 -8 54 -25 0 -13 -32 -19
-154 -29 -110 -9 -244 -25 -431 -51 -38 -5 -104 -14 -145 -19 -134 -17 -385
-69 -465 -95 -22 -7 -55 -16 -72 -20 -18 -4 -33 -11 -33 -16 0 -12 37 -11 80
1 19 6 91 17 160 25 69 8 157 19 195 24 39 5 171 15 295 21 124 6 231 13 239
16 7 2 76 1 152 -2 l139 -7 -6 -34 c-4 -22 -1 -41 9 -56 8 -13 17 -53 19 -90
l3 -67 -135 1 c-91 0 -128 3 -112 9 50 21 12 26 -169 22 -140 -3 -190 -1 -185
7 4 6 18 11 31 11 13 0 35 4 50 10 14 5 81 17 148 26 232 30 221 33 -93 29
-168 -3 -332 -7 -365 -10 -53 -4 -55 -3 -20 5 22 5 75 9 118 9 65 1 77 4 77
18 0 14 -17 15 -177 10 -199 -7 -359 -30 -538 -76 -126 -33 -263 -78 -280 -93
-5 -4 965 -8 2155 -8 l2165 1 -130 125 c-123 118 -185 173 -251 219 -98 69
-314 282 -314 309 0 3 29 6 64 6 68 0 116 -24 116 -58 0 -38 21 10 51 113 17
61 35 115 39 120 4 6 11 26 15 45 4 19 11 40 15 45 4 6 11 21 15 35 20 68 161
352 229 460 50 80 80 124 119 175 36 46 68 107 113 215 15 34 19 70 19 150 l0
105 -40 60 c-21 33 -42 62 -45 65 -3 3 -16 19 -28 37 l-22 32 30 51 c31 53 54
159 42 202 -5 21 -55 95 -98 145 -11 11 -26 31 -34 43 -8 12 -38 52 -67 90
-32 41 -56 84 -62 111 -24 104 -138 331 -173 347 -5 2 -8 8 -8 14 0 6 -11 23
-24 38 -13 16 -31 59 -40 97 -32 131 -84 305 -106 358 -5 11 -11 33 -15 50
-17 79 -110 250 -184 337 -59 71 -171 172 -216 195 -16 9 -34 21 -41 27 -7 6
-26 22 -43 35 -17 13 -31 30 -31 38 0 22 -38 181 -57 233 -26 76 -96 232 -130
292 -18 31 -33 59 -33 61 0 3 -18 32 -39 65 -45 67 -76 86 -177 107 -37 8 -76
22 -88 33 -11 11 -38 26 -59 33 -22 8 -42 20 -47 29 -13 27 -20 119 -8 126 17
11 58 107 58 137 0 15 5 27 12 27 18 0 89 51 125 90 24 26 33 44 33 71 0 19
-4 39 -9 45 -25 25 -67 245 -56 293 6 25 -31 91 -52 91 -6 0 -13 5 -15 12 -7
19 -138 23 -195 5 -58 -19 -297 -61 -314 -55 -6 2 13 16 42 31 84 44 176 103
211 136 9 9 38 34 65 56 79 66 194 187 245 260 4 5 18 24 32 40 35 44 85 132
102 179 43 121 54 158 63 217 14 82 14 229 1 301 -12 66 -52 170 -66 175 -5 2
-19 -5 -29 -14 -37 -34 -90 -69 -140 -93 -27 -14 -52 -26 -54 -28 -3 -1 0 -7
5 -12 11 -11 151 55 186 87 22 20 29 13 51 -44 28 -72 41 -219 28 -320 -18
-136 -26 -158 -67 -182 -19 -12 -50 -21 -68 -21 l-34 0 6 48 c4 34 13 55 34
77 47 48 86 135 60 135 -4 0 -26 -18 -47 -40 -21 -22 -45 -40 -52 -40 -24 0
-30 143 -9 206 7 19 5 20 -54 16 -57 -4 -65 -2 -123 34 -79 49 -110 76 -161
144 -40 53 -71 110 -60 110 3 0 30 -26 60 -57 41 -43 54 -52 54 -38 0 34 -76
158 -133 221 l-55 59 111 6 c103 6 205 24 194 35 -2 2 -46 11 -98 20 -149 24
-248 66 -314 134 -33 34 -37 42 -25 50 21 14 45 12 87 -5 91 -38 29 30 -72 79
-41 20 -79 36 -85 36 -13 0 -4 35 16 65 8 11 14 31 14 44 0 25 0 25 -32 -9
l-32 -35 -7 52 c-4 29 -9 60 -13 68 -10 26 -26 16 -26 -15 0 -60 -54 -119
-109 -120 -30 0 -33 2 -26 23 15 43 17 147 4 163 -10 13 -15 5 -30 -52 -18
-69 -48 -134 -61 -134 -16 0 -60 85 -81 153 l-21 70 -12 -34 c-16 -43 -17
-109 -4 -145 6 -15 8 -29 5 -32 -10 -10 -245 238 -245 257 0 5 -10 16 -21 27
l-22 19 8 -50 c9 -63 42 -165 61 -186 21 -24 17 -29 -18 -22 -90 17 -219 89
-285 161 -18 20 -36 33 -39 29 -11 -10 39 -116 73 -156 l32 -38 -57 14 c-92
24 -182 32 -258 23 -40 -4 -77 -11 -83 -14 -16 -10 -5 -23 26 -30 53 -13 198
-57 215 -67 10 -5 24 -9 32 -9 8 0 18 -5 22 -12 13 -21 -220 -1 -306 26 -79
25 -170 62 -170 70 0 5 186 112 240 138 58 28 142 56 188 61 24 3 52 13 62 22
34 31 118 45 273 45 183 0 377 -33 495 -86 18 -7 46 -14 62 -14 16 0 35 -7 43
-15 8 -7 26 -17 40 -20 14 -4 27 -14 29 -23 3 -13 15 -17 59 -17 47 0 62 -5
93 -30 21 -16 45 -34 54 -40 87 -55 185 -135 272 -224 112 -113 230 -275 230
-316 0 -17 16 -41 46 -71 44 -43 45 -46 29 -64 -20 -22 -192 -140 -205 -140
-4 0 -10 -7 -14 -15 -8 -23 1 -19 107 39 122 67 167 102 167 126 0 11 -22 41
-49 66 -29 27 -51 58 -55 75 -12 60 -138 233 -256 350 -67 66 -200 172 -255
203 -16 9 -43 25 -60 36 -43 28 -73 40 -100 40 -15 0 -26 7 -30 21 -5 16 -12
19 -31 15 -18 -5 -31 0 -49 18 -16 16 -39 26 -72 29 -26 3 -75 12 -108 22
-219 61 -500 82 -663 50z m367 -255 c65 -64 160 -135 169 -125 3 2 -2 24 -11
47 -8 24 -18 61 -21 83 l-5 40 25 -50 c14 -27 32 -57 39 -65 15 -18 25 -100
11 -100 -14 0 -117 51 -150 74 -82 58 -131 108 -157 158 -28 56 -24 76 8 36
14 -18 56 -62 92 -98z m-294 19 c21 -12 71 -31 109 -44 39 -13 85 -30 101 -39
17 -9 35 -16 42 -16 16 0 43 -28 43 -45 0 -10 -25 -1 -81 27 -85 42 -112 42
-89 -2 11 -21 11 -22 -11 -16 -100 29 -272 62 -381 71 -42 4 -85 13 -95 20
-48 37 236 3 332 -39 40 -18 85 -28 85 -20 0 4 -25 33 -55 65 -30 32 -55 63
-55 71 0 10 2 11 8 0 5 -7 26 -22 47 -33z m-585 -90 c107 -55 226 -82 375 -83
95 -1 137 -6 155 -16 23 -14 17 -15 -90 -18 -100 -3 -172 3 -284 25 -26 5 -28
3 -23 -16 4 -16 1 -21 -15 -21 -27 0 -117 39 -157 68 -31 23 -91 105 -91 125
0 5 26 -6 58 -24 31 -18 64 -36 72 -40z m-95 -45 c36 -46 89 -96 140 -131 l50
-35 -67 6 c-90 9 -248 70 -248 96 0 9 91 90 100 89 3 0 14 -11 25 -25z m-190
-62 c33 -24 94 -60 135 -80 69 -33 84 -36 192 -41 116 -6 148 -16 133 -42 -13
-20 -280 -5 -347 21 -29 11 -57 20 -61 20 -17 0 18 -45 93 -121 43 -43 75 -79
70 -79 -22 0 -111 74 -164 136 -46 55 -136 213 -136 240 0 7 14 -2 85 -54z
m-7 -167 c42 -60 63 -81 128 -124 l49 -33 -55 7 c-60 8 -161 40 -200 63 -14 8
-35 21 -48 29 -19 11 -20 16 -10 28 7 7 31 35 53 60 25 30 41 42 44 34 2 -8
20 -36 39 -64z m1282 45 c0 -5 14 -10 30 -10 19 0 30 -5 30 -14 0 -7 7 -19 15
-26 35 -29 5 -150 -113 -470 -28 -74 -57 -152 -66 -172 -9 -21 -16 -40 -16
-42 0 -12 29 7 34 22 3 9 24 49 46 87 46 80 86 163 119 250 13 33 27 67 32 77
4 9 15 56 25 105 9 48 18 91 21 96 7 12 48 -45 66 -94 18 -48 32 -119 42 -217
3 -31 8 -68 11 -82 4 -24 -3 -30 -83 -70 -48 -25 -90 -48 -93 -51 -3 -3 -10
-8 -15 -10 -6 -2 -36 -19 -66 -38 -46 -28 -60 -43 -78 -84 -11 -28 -19 -53
-16 -55 2 -2 27 19 55 47 51 54 62 53 34 0 -15 -31 -12 -65 5 -55 5 3 18 26
29 50 39 82 94 122 183 133 l49 6 1 -49 1 -49 17 37 c15 31 19 35 36 26 30
-17 48 -39 69 -85 19 -42 30 -51 40 -34 11 17 -44 110 -84 142 -45 37 -54 76
-20 97 26 16 111 45 116 39 10 -9 34 -239 34 -322 0 -101 -8 -119 -64 -143
-24 -11 -31 -11 -38 0 -6 10 -9 8 -14 -8 -3 -12 -21 -28 -40 -38 -43 -20 -54
-20 -54 -1 0 8 6 15 14 15 21 0 126 73 126 87 0 20 -14 16 -69 -21 -90 -61
-191 -63 -270 -7 -32 23 -47 26 -56 11 -16 -26 150 -97 200 -84 20 5 25 3 25
-14 0 -15 -9 -21 -39 -26 -22 -3 -43 -11 -46 -16 -10 -16 25 -24 56 -13 21 8
30 7 43 -5 15 -15 16 -15 16 3 0 14 13 26 40 38 50 21 70 22 70 1 0 -24 20 -6
20 19 1 14 14 30 35 44 29 18 34 19 40 6 8 -23 11 -17 39 77 l26 85 -6 -85
c-6 -90 -35 -217 -59 -262 -8 -14 -15 -34 -15 -43 0 -26 24 -3 50 48 l21 42
-6 -65 c-9 -86 -64 -282 -84 -300 -3 -3 -13 -21 -22 -40 -17 -36 -98 -140
-108 -140 -12 1 -45 86 -46 115 0 20 -5 30 -15 30 -19 1 -40 14 -40 25 0 5 12
16 28 24 52 27 142 131 142 164 0 6 8 27 17 47 22 47 11 54 -28 16 -17 -17
-44 -38 -59 -46 -26 -13 -28 -13 -33 5 -8 31 -25 24 -32 -13 -5 -28 -13 -35
-51 -49 l-44 -16 0 24 c0 13 -4 24 -10 24 -5 0 -10 -11 -10 -25 0 -19 -6 -26
-27 -30 -16 -3 -55 -12 -88 -20 -50 -12 -368 -45 -427 -45 -10 0 -18 7 -18 15
0 19 -19 19 -34 1 -6 -8 -37 -18 -68 -21 l-58 -7 -14 32 c-10 24 -15 29 -22
19 -5 -8 -7 -23 -5 -33 2 -17 -2 -18 -40 -12 l-42 7 18 -28 c75 -119 186 -150
449 -124 117 11 119 11 142 -10 13 -13 24 -25 24 -29 0 -13 -156 -31 -243 -29
-78 3 -92 1 -95 -13 -4 -23 1 -25 123 -38 152 -16 191 -27 215 -60 23 -32 26
-66 7 -84 -24 -24 -79 -26 -204 -6 -171 28 -273 78 -383 189 -54 54 -121 153
-135 199 -3 12 -10 22 -15 22 -5 0 -12 10 -15 23 -4 12 -13 36 -20 52 -34 79
-79 250 -102 389 -25 153 -27 275 -5 381 l19 89 7 -174 c7 -185 27 -322 39
-265 4 17 12 89 18 160 14 161 16 166 69 154 49 -11 90 -36 90 -55 0 -7 -17
-22 -37 -33 -61 -31 -103 -89 -103 -141 0 -20 5 -30 15 -30 10 0 15 11 15 35
0 28 8 43 41 75 51 50 67 51 65 5 -1 -46 17 -45 28 2 10 44 20 53 59 53 20 0
27 -5 27 -20 0 -24 9 -26 25 -3 11 15 15 15 51 -3 24 -12 50 -37 69 -66 30
-47 55 -62 55 -32 0 9 -8 28 -18 42 -46 66 -35 70 32 11 l46 -41 0 29 c0 15
-4 33 -8 39 -9 14 -72 46 -139 69 -58 21 -64 35 -39 83 8 15 36 72 62 127 27
55 51 102 54 105 13 13 60 91 60 100 0 5 3 10 8 10 4 0 33 34 65 75 54 68 171
174 207 188 25 9 60 8 60 -3z m-1428 -127 c12 -28 170 -135 251 -170 15 -7 27
-16 27 -20 0 -5 -22 -24 -47 -43 -129 -97 -263 -248 -309 -349 -8 -18 -14 -35
-12 -37 2 -2 35 17 73 43 78 51 192 113 209 113 6 0 23 7 39 14 36 20 34 8
-10 -50 -61 -80 -108 -167 -119 -222 -9 -42 0 -40 29 6 14 20 44 57 68 81 24
24 57 62 72 85 16 22 26 32 24 21 -3 -11 -9 -36 -12 -55 -9 -45 -37 -99 -88
-175 -40 -60 -82 -155 -68 -155 10 0 80 82 126 146 40 56 47 40 15 -34 -23
-52 -26 -58 -60 -119 -13 -24 -21 -46 -17 -49 9 -9 84 32 135 73 l42 34 0 -36
c0 -23 -5 -38 -15 -41 -9 -4 -27 -26 -41 -50 -24 -41 -25 -50 -23 -175 1 -95
-1 -134 -10 -137 -6 -2 -18 -10 -26 -18 -8 -8 -36 -25 -64 -37 -36 -17 -47
-27 -41 -37 7 -11 18 -9 62 9 29 13 61 30 71 39 16 14 21 14 40 2 12 -7 34
-20 48 -27 50 -25 51 -35 10 -78 -21 -22 -53 -49 -72 -59 -35 -18 -35 -18 -71
6 -52 36 -120 89 -143 113 -46 48 -145 173 -145 183 0 7 -4 12 -8 12 -9 0 -72
122 -72 139 0 6 -7 11 -15 11 -8 0 -17 12 -21 28 -4 15 -18 63 -33 107 -23 71
-26 96 -26 225 0 96 5 158 14 183 12 34 11 40 -5 58 -17 18 -16 20 2 42 11 12
31 56 44 97 13 41 29 84 36 95 6 11 15 31 19 44 7 25 71 137 89 158 13 14 23
16 28 6z m1801 -133 c35 -75 69 -180 63 -195 -2 -7 -17 -15 -33 -18 -15 -3
-35 -8 -44 -12 -15 -5 -17 10 -22 132 -3 76 -8 149 -12 163 -7 24 -7 24 8 5 8
-11 26 -45 40 -75z m-1613 54 c30 -10 72 -15 127 -13 75 3 86 1 105 -19 l22
-22 -69 0 c-69 0 -167 24 -223 54 -35 20 -18 20 38 0z m790 -85 c-22 -46 -40
-91 -40 -99 0 -9 -4 -20 -9 -25 -12 -14 -61 -184 -61 -214 0 -21 -3 -23 -32
-17 -17 3 -33 8 -36 10 -4 5 30 101 47 133 5 10 30 59 54 110 45 91 108 195
114 189 2 -2 -14 -41 -37 -87z m-229 -54 c-6 -23 -14 -92 -17 -154 -6 -93 -10
-111 -22 -106 -8 3 -35 10 -59 17 l-45 11 6 41 c4 23 11 45 17 51 5 5 9 16 9
25 0 19 61 139 92 183 l23 32 3 -29 c2 -16 -1 -48 -7 -71z m-394 -10 c2 -6 -9
-16 -24 -22 -29 -13 -36 -17 -115 -70 -26 -18 -52 -33 -57 -33 -6 0 -14 -6
-18 -14 -4 -7 -19 -18 -33 -25 -31 -15 110 122 159 155 36 23 82 28 88 9z
m1353 -220 c0 -9 -9 -15 -22 -15 -22 1 -23 1 -4 15 25 19 26 19 26 0z m440
-410 c11 -13 10 -14 -4 -9 -9 3 -16 10 -16 15 0 13 6 11 20 -6z m17 -57 c29
-33 53 -113 53 -179 0 -48 -6 -68 -34 -116 -46 -78 -119 -150 -164 -163 -35
-9 -122 -14 -122 -6 0 1 5 18 11 35 13 37 41 51 103 51 27 0 48 6 56 15 7 8
17 15 22 15 13 0 57 52 58 68 0 9 -5 10 -19 3 -21 -12 -31 -5 -31 20 0 10 -18
37 -40 60 -41 44 -49 66 -28 87 20 20 35 14 57 -23 25 -42 56 -50 41 -9 -6 14
-10 35 -10 47 0 31 22 6 35 -40 6 -20 16 -38 24 -41 11 -4 13 4 7 39 -7 45
-48 119 -66 119 -6 0 -10 9 -10 20 0 27 31 26 57 -2z m-1735 -44 c18 -8 38
-26 45 -40 6 -13 10 -24 9 -24 -1 0 -24 7 -49 16 -44 15 -49 15 -72 0 -14 -9
-27 -27 -30 -41 -3 -14 -7 -36 -10 -49 -2 -12 -2 -26 2 -29 11 -11 33 14 33
38 0 32 30 55 58 44 27 -10 28 -26 2 -34 -23 -7 -27 -40 -6 -48 8 -3 20 1 27
9 16 20 63 14 67 -8 2 -12 -6 -19 -32 -23 -35 -7 -66 -39 -66 -70 0 -9 9 -34
20 -56 16 -34 16 -40 4 -35 -9 3 -28 9 -42 12 -27 6 -27 6 -7 -14 25 -25 107
-52 157 -52 41 0 51 14 18 25 -26 8 -36 49 -21 83 l12 26 22 -34 c12 -19 24
-37 27 -40 4 -3 17 -24 30 -48 31 -54 21 -64 -62 -64 -72 1 -137 28 -201 84
-33 29 -39 41 -48 98 -14 82 -5 194 17 228 13 22 52 61 61 62 1 0 17 -7 35
-16z m2228 7 c0 -5 -9 -29 -21 -55 -23 -52 -50 -74 -104 -83 l-38 -6 7 38 c12
64 24 85 48 86 13 0 39 6 58 13 44 17 50 18 50 7z m-97 -173 c-6 -10 -83 -10
-83 0 0 4 20 7 44 7 24 0 42 -3 39 -7z m-555 -63 c3 -44 -11 -69 -45 -80 -20
-5 -23 -3 -23 21 0 15 8 45 17 66 22 51 47 47 51 -7z m-215 18 c-16 -47 -75
-112 -130 -143 -38 -21 -42 -21 -65 -6 -14 9 -50 25 -79 36 -38 13 -46 19 -29
20 14 0 35 3 48 6 18 5 22 2 22 -16 0 -19 2 -20 15 -10 8 7 15 20 15 30 0 12
13 20 45 27 44 10 45 9 45 -13 0 -15 6 -24 15 -24 10 0 15 10 15 33 0 27 6 36
38 53 47 27 53 28 45 7z m726 -10 c4 -2 -53 -75 -94 -119 -11 -12 -32 -35 -46
-50 -40 -45 -132 -130 -149 -138 -13 -7 -13 -6 0 6 8 7 34 38 57 68 23 30 48
62 55 71 16 20 33 46 54 84 10 17 28 47 40 67 23 35 26 37 51 26 16 -7 30 -13
32 -15z m-1165 -121 c-20 -14 -44 -57 -44 -79 0 -28 -10 -31 -171 -42 -138
-10 -180 -8 -256 11 -42 10 -53 21 -33 33 6 3 10 17 10 31 0 22 3 24 54 24 52
0 55 -1 58 -27 4 -36 32 -37 36 -2 3 25 7 27 80 34 42 4 104 11 137 15 85 10
142 11 129 2z m182 -23 c83 -32 162 -131 183 -226 5 -25 5 -75 0 -120 -9 -83
-13 -89 -98 -153 -18 -14 -41 -32 -51 -41 -9 -8 -23 -19 -31 -23 -8 -4 -32
-18 -54 -31 -22 -14 -55 -32 -72 -42 -18 -9 -33 -20 -33 -25 0 -4 -4 -8 -9 -8
-9 0 -44 -23 -124 -80 -51 -37 13 58 68 100 79 60 132 167 142 286 3 41 9 74
12 74 3 0 19 -14 34 -32 l29 -33 -6 31 c-3 21 -26 53 -65 93 -79 81 -124 148
-117 175 3 12 18 35 35 53 26 28 34 31 68 27 21 -3 61 -15 89 -25z m624 17 c0
-3 -14 -20 -31 -38 -18 -18 -28 -26 -24 -18 8 15 47 59 53 60 1 0 2 -2 2 -4z
m-1333 -46 c2 -23 -7 -26 -25 -8 -17 17 -15 28 6 28 11 0 18 -8 19 -20z m1210
-56 c-3 -3 -12 -4 -19 -1 -8 3 -5 6 6 6 11 1 17 -2 13 -5z m-102 -11 c-11 -3
-28 -12 -37 -20 -15 -13 -16 -13 -11 6 4 16 13 21 37 20 21 -1 25 -3 11 -6z
m-1413 -23 c29 -6 67 -6 95 0 43 8 50 7 66 -13 70 -86 104 -121 162 -163 63
-46 65 -49 65 -91 l0 -43 -37 0 c-42 0 -165 19 -172 26 -2 2 1 14 7 27 22 43
30 74 23 86 -6 8 -19 -7 -40 -44 -32 -57 -33 -57 -71 -51 -31 5 -67 19 -109
43 -2 1 13 22 33 47 20 24 36 47 36 51 0 3 7 13 15 21 8 9 15 21 15 29 0 7 -7
15 -15 19 -8 3 -15 1 -15 -4 0 -21 -92 -140 -109 -140 -22 0 -71 23 -71 33 0
7 16 23 35 37 38 28 47 43 39 65 -4 10 -19 1 -55 -36 l-49 -50 -31 22 -32 22
39 31 c21 17 53 45 69 63 17 18 36 30 45 27 8 -3 36 -9 62 -14z m1301 -117
c-5 -33 -23 -47 -23 -18 0 14 22 57 26 52 1 -1 -1 -17 -3 -34z m-6 -125 c-3
-7 -5 -2 -5 12 0 14 2 19 5 13 2 -7 2 -19 0 -25z m612 23 c9 -6 12 -25 10 -57
-1 -27 1 -61 5 -76 10 -35 -17 -82 -63 -109 -44 -26 -50 -18 -11 14 33 28 39
47 14 47 -14 0 -14 2 0 22 31 43 23 48 -81 48 -71 0 -118 -6 -171 -22 -68 -20
-73 -23 -67 -45 3 -15 1 -23 -7 -23 -19 1 -40 20 -76 70 -38 52 -33 58 58 60
30 0 73 5 95 11 22 6 65 16 95 24 30 7 75 20 100 29 52 17 80 19 99 7z m-559
-62 c27 -8 44 -22 59 -50 33 -59 181 -219 257 -280 38 -29 75 -59 82 -66 7 -7
42 -31 78 -54 64 -42 65 -43 62 -83 -2 -32 -9 -44 -30 -56 -26 -14 -31 -13
-75 10 -52 27 -303 271 -303 295 0 11 -28 32 -82 60 -55 29 -58 30 -58 11 0
-8 21 -25 47 -38 32 -16 54 -37 72 -67 64 -108 175 -232 293 -329 84 -69 98
-91 74 -127 -29 -44 -50 -41 -144 21 -48 32 -92 63 -98 69 -7 5 -24 19 -40 30
-27 19 -114 94 -143 122 -14 15 -33 13 -38 -3 -6 -17 161 -194 320 -340 68
-63 78 -85 53 -119 -13 -18 -16 -17 -68 27 -29 25 -76 72 -103 104 -28 31 -58
66 -67 76 -10 10 -18 23 -18 28 0 6 -4 10 -8 10 -5 0 -31 33 -58 73 -59 86
-61 88 -90 75 -17 -8 -31 -7 -52 1 -28 12 -47 9 -107 -18 -11 -5 -40 -18 -65
-29 -95 -43 -170 -72 -185 -72 -8 0 -15 -4 -15 -9 0 -5 -10 -11 -22 -14 -20
-4 -187 -71 -243 -97 -11 -5 -49 -21 -85 -35 -36 -14 -74 -30 -85 -35 -127
-58 -216 -80 -244 -61 -13 8 -12 15 5 46 10 20 34 54 52 75 42 51 41 67 -3 40
-44 -27 -106 -62 -163 -91 -27 -13 -39 -24 -32 -29 16 -10 -3 -23 -80 -55 -36
-14 -78 -32 -95 -39 -67 -30 -216 -86 -227 -86 -7 0 -26 -7 -41 -15 -15 -8
-42 -19 -60 -24 -18 -6 -57 -19 -87 -30 -30 -11 -107 -38 -170 -61 -63 -23
-155 -55 -205 -71 -49 -16 -104 -36 -122 -44 -17 -8 -36 -15 -43 -15 -7 0 -26
-6 -43 -14 -18 -8 -48 -19 -67 -25 -19 -5 -114 -37 -210 -70 -96 -34 -256 -88
-354 -122 l-180 -61 -65 -68 c-70 -71 -157 -144 -222 -186 l-40 -25 -65 21
c-36 11 -70 23 -75 26 -9 5 136 127 163 137 7 2 10 7 6 11 -3 4 -17 1 -30 -7
-12 -8 -34 -18 -48 -22 -14 -3 5 13 42 37 37 24 71 47 75 52 20 19 -114 -28
-179 -64 -13 -8 -16 -6 -12 5 4 8 11 15 18 15 15 1 72 48 65 54 -7 7 -61 -20
-122 -62 -27 -18 -51 -32 -55 -32 -4 0 -38 -30 -75 -66 -65 -64 -89 -77 -69
-37 5 10 20 45 32 78 29 76 73 169 83 173 4 2 7 9 7 14 0 16 98 144 151 199
47 47 76 62 169 84 30 7 96 23 145 35 50 11 135 30 190 40 55 11 136 27 180
35 158 32 497 86 502 81 2 -2 -26 -16 -62 -32 -35 -16 -65 -32 -65 -36 0 -14
37 -8 86 13 27 11 65 27 84 36 19 8 49 20 65 28 28 12 77 32 170 69 93 36 258
96 267 96 6 0 24 6 41 14 18 8 66 24 107 36 41 12 93 28 115 35 22 8 67 19 99
25 33 7 67 16 75 21 9 4 50 19 91 33 155 51 501 196 520 217 3 3 29 20 58 39
28 18 52 37 52 42 0 4 5 8 11 8 9 0 151 110 169 130 11 12 210 142 240 156 34
16 107 71 188 140 91 78 105 83 172 63z m-837 -152 c22 -64 37 -147 37 -198 0
-21 4 -40 9 -43 5 -3 11 -20 13 -36 4 -26 -1 -35 -31 -58 -49 -38 -88 -62
-101 -62 -12 0 -112 68 -153 104 -16 14 -34 27 -40 30 -8 3 -3 13 12 26 18 15
32 19 55 15 27 -5 33 -2 48 23 9 16 22 46 27 68 5 21 15 57 20 79 6 22 11 74
11 115 l1 75 37 -43 c21 -23 46 -66 55 -95z m-988 77 c80 -18 86 -20 178 -66
170 -83 162 -74 147 -170 -12 -79 -33 -143 -74 -225 -23 -46 -31 -53 -64 -59
-85 -14 -370 -100 -457 -138 -16 -7 -56 -24 -87 -36 -68 -28 -75 -40 -15 -30
23 4 71 10 107 14 58 6 63 5 46 -8 -10 -9 -44 -20 -75 -26 -31 -6 -69 -15 -86
-20 -16 -4 -47 -11 -68 -15 -31 -5 -37 -9 -32 -25 8 -25 -15 -36 -92 -43 -62
-5 -76 -11 -188 -82 -27 -18 -74 -47 -104 -66 l-54 -34 54 -5 54 -5 -55 -13
c-30 -7 -100 -19 -155 -28 -169 -26 -256 -42 -355 -64 -193 -44 -210 -47 -210
-39 0 5 3 9 8 9 4 0 41 32 82 72 115 109 266 239 372 320 90 68 247 178 271
189 22 10 36 30 83 117 61 111 156 243 228 316 165 168 317 213 541 160z
m1194 -79 c99 -38 100 -41 41 -96 -28 -26 -59 -68 -70 -93 -11 -24 -33 -55
-48 -66 l-27 -22 -8 44 c-4 23 -16 79 -26 123 l-20 80 49 -55 c41 -45 51 -52
60 -40 13 20 12 26 -3 42 -27 27 -67 85 -67 96 0 19 52 14 119 -13z m-809 -25
c0 -12 73 -40 130 -49 43 -7 60 -6 78 5 20 13 25 13 45 -1 22 -16 22 -16 -5
-9 -17 4 -28 2 -28 -4 0 -7 -31 -9 -92 -5 l-91 6 7 -59 c15 -140 18 -264 7
-347 -7 -48 -14 -93 -17 -100 -5 -15 -63 -42 -71 -34 -3 4 0 52 8 109 15 115
18 413 5 471 -8 32 -7 37 8 31 9 -3 16 -9 16 -14z m1830 -31 c0 -6 9 -22 20
-36 24 -31 28 -101 5 -109 -17 -7 -72 31 -123 84 l-33 35 38 18 c43 20 93 24
93 8z m-1458 -73 c26 -13 45 -26 42 -29 -6 -6 -44 10 -54 22 -3 4 -16 12 -30
18 -14 6 -20 12 -15 12 6 0 31 -10 57 -23z m36 -251 c34 -22 62 -43 62 -47 0
-8 -107 -61 -146 -72 -19 -6 -22 -1 -28 55 -3 34 -6 79 -6 100 l0 39 28 -18
c15 -9 55 -35 90 -57z m-197 9 c4 -16 7 -58 8 -94 1 -56 -2 -67 -20 -78 -12
-7 -23 -12 -25 -9 -10 9 10 217 20 214 6 -2 14 -17 17 -33z m1158 -178 l25
-14 -31 -31 c-28 -28 -38 -31 -92 -31 -68 0 -77 11 -37 49 40 38 96 49 135 27z
m134 -158 c8 -13 46 -59 85 -103 68 -77 69 -80 49 -92 -19 -10 -26 -7 -59 28
-21 22 -40 50 -44 62 -3 13 -21 41 -40 62 -35 40 -39 47 -27 58 11 12 20 8 36
-15z m462 -25 c25 -51 98 -177 105 -183 14 -13 90 -138 90 -148 0 -18 105
-233 153 -317 73 -124 230 -334 333 -445 105 -113 176 -222 220 -338 38 -102
34 -111 -28 -60 -29 24 -58 48 -66 53 -7 6 -18 15 -25 20 -27 22 -97 65 -107
65 -5 0 -10 5 -10 10 0 6 -7 10 -15 10 -23 0 -18 -13 21 -51 19 -18 61 -65 92
-104 31 -38 62 -77 69 -85 8 -8 27 -33 43 -55 16 -22 34 -45 40 -52 5 -7 10
-14 10 -17 0 -5 41 -70 57 -91 5 -5 14 -21 21 -35 7 -14 24 -45 38 -70 14 -25
41 -81 61 -125 l36 -80 5 -185 c3 -168 0 -228 -27 -427 -4 -29 -9 -54 -11 -56
-3 -2 -25 -19 -50 -36 -63 -45 -145 -126 -170 -168 l-21 -35 28 7 c15 3 43 14
62 23 47 22 193 22 241 -1 l35 -16 -65 -1 c-36 0 -92 -5 -125 -10 -84 -14
-226 -61 -222 -73 2 -6 17 -15 34 -21 18 -6 35 -15 39 -19 11 -11 -15 -27 -44
-27 -57 0 -214 -85 -302 -164 -82 -73 -233 -276 -205 -276 2 0 31 26 63 58 60
58 70 66 132 104 53 33 189 98 205 98 8 0 32 7 52 15 21 8 83 21 137 29 l99
15 61 -30 61 -31 63 17 c68 19 88 16 44 -5 -15 -8 -39 -25 -54 -38 -25 -23
-29 -24 -60 -11 -18 7 -35 16 -38 19 -14 18 -122 42 -171 37 -56 -5 -129 -21
-164 -36 -178 -76 -310 -164 -459 -306 -55 -53 -126 -120 -156 -148 -42 -40
-61 -67 -78 -114 -29 -80 -47 -293 -35 -419 l9 -92 -40 34 c-26 22 -46 32 -58
28 -29 -9 -21 15 16 50 l33 31 6 120 c4 78 13 143 26 185 12 36 21 69 21 75 0
5 -26 -19 -58 -53 -53 -57 -62 -62 -99 -62 -47 0 -73 -20 -73 -55 0 -15 -13
-34 -34 -52 l-34 -28 11 -52 c8 -38 8 -68 0 -104 -8 -44 -8 -54 6 -68 96 -97
131 -173 142 -311 9 -108 6 -127 -36 -225 -7 -16 -15 -39 -18 -50 -3 -11 -5 3
-6 30 -2 85 -40 362 -57 417 -44 146 -115 235 -235 297 -53 27 -58 31 -29 26
19 -4 51 -18 70 -31 l35 -24 17 20 c17 22 35 87 25 96 -2 3 -17 7 -33 10 -44
8 -49 20 -12 28 44 8 99 38 95 51 -6 17 -137 18 -182 1 -22 -8 -62 -18 -90
-21 -27 -3 -65 -8 -82 -11 -45 -7 -42 12 3 21 20 3 44 10 53 15 26 15 211 62
336 85 131 25 119 38 -30 32 l-130 -5 85 24 c47 12 101 23 120 24 29 0 42 8
75 48 44 52 342 352 475 478 90 85 173 176 235 259 21 28 41 52 44 55 12 10
61 90 61 99 0 5 4 11 8 13 9 3 62 110 62 125 1 4 12 22 26 38 l26 30 -7 -35
c-10 -48 -112 -252 -136 -270 -3 -3 -12 -16 -19 -30 -7 -14 -10 -23 -7 -20 3
3 70 68 149 144 l143 140 12 70 c7 39 20 114 28 166 26 170 43 241 59 259 33
36 30 72 -13 156 -50 100 -81 170 -81 185 0 11 -14 46 -39 100 -23 48 -57 100
-143 218 -37 50 -68 95 -68 100 0 4 -18 34 -40 67 -22 33 -40 63 -40 67 0 15
-54 85 -109 143 -32 33 -66 74 -75 90 -9 17 -25 44 -36 60 -11 17 -31 55 -45
85 -39 84 -39 84 -88 102 -57 21 -135 75 -202 137 -81 76 -175 131 -225 131
-14 0 -20 7 -20 21 0 11 -10 43 -21 70 -20 44 -20 51 -6 67 40 46 87 177 87
244 0 18 9 50 19 72 11 23 21 70 23 107 3 45 9 72 21 83 9 10 17 24 17 32 0
22 13 10 35 -33z m104 -28 c27 -25 54 -38 92 -45 97 -19 126 -37 166 -110 53
-93 105 -201 101 -206 -2 -2 -22 20 -44 48 -46 62 -110 127 -179 184 -47 38
-85 60 -85 48 0 -9 63 -157 101 -240 28 -60 23 -64 -13 -8 -17 27 -46 72 -64
99 -49 76 -131 221 -139 244 -10 33 19 26 64 -14z m-569 -138 c0 -7 -16 -19
-35 -26 -19 -7 -35 -17 -35 -22 0 -5 -7 -9 -15 -9 -7 0 -18 -7 -22 -15 -8 -13
-14 -14 -46 -3 -20 7 -37 18 -38 23 -1 6 16 18 37 29 22 10 41 22 42 27 6 15
112 11 112 -4z m110 -38 c0 -27 56 -79 85 -79 35 0 51 -25 35 -54 -14 -28 -34
-33 -162 -42 -75 -6 -99 -12 -124 -31 -30 -22 -31 -22 -47 -5 -17 19 -23 88
-9 108 4 6 31 29 61 52 l54 43 14 -28 c26 -52 83 -84 83 -47 0 9 -7 22 -15 28
-8 6 -18 26 -21 44 -6 30 -5 32 20 32 20 0 26 -5 26 -21z m-298 -63 c46 -23
46 -24 32 -51 -23 -44 -17 -79 19 -119 45 -49 95 -45 142 10 6 6 43 14 84 17
l73 6 -6 -39 c-3 -22 -21 -73 -40 -114 -29 -64 -32 -77 -20 -87 12 -9 6 -16
-30 -39 -48 -31 -101 -94 -92 -109 4 -5 26 -4 59 5 65 17 95 17 126 0 l25 -14
-32 -7 c-51 -11 -38 -22 34 -28 61 -6 127 -33 146 -61 11 -16 4 -17 -29 -4
-25 9 -38 9 -59 0 l-27 -13 23 -24 c14 -15 24 -41 27 -69 5 -43 8 -46 34 -46
27 0 69 -29 69 -47 0 -5 -14 -17 -31 -28 -32 -21 -59 -62 -59 -90 0 -8 -12
-20 -26 -25 -27 -11 -121 -3 -139 10 -5 4 -26 11 -45 15 -19 4 -54 16 -77 26
-23 11 -45 19 -48 19 -4 0 -21 6 -38 14 -18 8 -54 24 -82 36 -27 12 -81 37
-120 55 -46 21 -105 38 -173 49 -93 14 -112 15 -210 1 -59 -9 -123 -23 -144
-31 -154 -67 78 132 257 219 99 48 95 50 95 -44 0 -94 17 -98 31 -8 5 29 16
60 26 70 21 19 240 159 251 159 24 1 67 60 44 60 -22 0 -72 55 -73 79 0 22
-12 31 -80 65 -44 21 -88 46 -99 55 -11 9 -31 24 -45 34 l-25 18 93 49 c50 27
97 49 102 49 6 1 31 -10 57 -23z m-1067 -111 c-29 -23 -36 -24 -183 -25 -156
0 -202 -9 -230 -43 -7 -9 -59 -30 -115 -48 -56 -17 -106 -35 -112 -39 -5 -5
-30 -13 -55 -19 -25 -7 -54 -16 -65 -21 -11 -5 -60 -23 -110 -39 -49 -16 -142
-48 -205 -71 -63 -23 -131 -46 -150 -52 -19 -5 -39 -14 -45 -18 -5 -4 -28 -13
-50 -20 -22 -6 -54 -18 -72 -26 -17 -8 -36 -14 -43 -14 -7 0 -24 -6 -38 -14
-33 -17 -134 -56 -145 -56 -5 0 -27 -9 -50 -19 -24 -11 -55 -23 -70 -26 -15
-4 -30 -11 -33 -16 -3 -5 -12 -9 -21 -9 -22 0 -229 -105 -342 -173 -52 -31
-97 -57 -102 -57 -4 0 -9 -3 -11 -7 -1 -5 -36 -30 -75 -57 -60 -40 -78 -47
-100 -41 -16 3 -43 9 -61 12 -18 3 -35 9 -37 14 -5 8 62 59 78 59 5 0 34 12
65 26 31 14 82 37 112 51 128 59 287 126 420 177 52 21 109 43 125 50 17 8 67
28 113 45 198 75 249 94 277 106 17 7 66 25 110 39 44 15 89 31 100 37 11 5
34 13 50 19 17 5 82 27 145 50 63 22 183 63 265 91 83 28 176 64 208 80 76 38
181 53 320 45 59 -4 107 -2 107 2 0 5 10 14 23 20 34 16 35 14 2 -13z m168
-50 c35 -40 178 -260 184 -282 3 -13 9 -23 14 -23 5 0 9 -6 9 -13 0 -7 8 -28
19 -47 10 -19 27 -61 37 -93 l18 -58 -43 -39 c-24 -22 -40 -33 -37 -24 3 8 9
50 12 94 l7 80 -49 98 c-54 109 -125 218 -188 289 -38 43 -65 42 -123 -2 -41
-31 -52 -35 -102 -34 l-56 2 60 7 c46 5 67 13 89 34 16 14 41 29 55 32 14 3
31 7 36 8 16 5 39 -7 58 -29z m-308 -44 c-3 -5 -19 -12 -35 -16 -17 -4 -30
-11 -30 -16 0 -5 -5 -9 -11 -9 -10 0 -105 -41 -143 -62 -30 -16 -76 -28 -76
-19 0 11 237 115 298 130 2 1 1 -3 -3 -8z m-375 -178 c-69 -80 -301 -273 -328
-273 -5 0 -12 17 -16 38 -3 21 -15 47 -25 59 l-20 21 72 35 c40 19 113 53 162
76 50 23 108 51 130 61 57 28 61 25 25 -17z m-631 -187 c-2 -2 -40 -24 -84
-50 -44 -26 -111 -67 -150 -90 -38 -23 -108 -63 -155 -88 -47 -25 -109 -60
-138 -77 -29 -17 -55 -31 -58 -31 -3 0 -31 -15 -63 -33 -53 -32 -64 -34 -181
-40 l-125 -7 66 39 c36 21 83 44 102 50 20 7 39 16 42 21 3 4 21 11 40 14 48
9 46 34 -2 38 -36 3 -32 7 97 69 205 100 208 101 308 110 52 4 99 12 105 17 7
6 26 13 43 16 17 4 57 18 90 31 32 13 61 22 63 19 2 -2 2 -6 0 -8z m1434 -52
c8 -9 -27 -64 -68 -105 l-20 -20 -3 25 c-4 34 -34 34 -79 0 -21 -16 -33 -20
-33 -12 0 21 52 77 90 97 34 18 101 27 113 15z m1772 -220 c22 -26 47 -54 56
-63 8 -9 44 -50 80 -91 35 -41 70 -79 77 -83 6 -4 12 -15 12 -23 0 -8 7 -17
15 -20 8 -4 15 -10 15 -15 0 -7 36 -66 57 -94 5 -5 14 -21 21 -35 7 -14 23
-43 35 -65 74 -129 102 -185 173 -355 8 -19 19 -43 24 -52 6 -10 9 -71 8 -135
l-1 -118 -7 115 c-6 105 -12 135 -39 195 -5 11 -21 47 -36 80 -42 96 -97 204
-145 288 -88 154 -110 185 -203 290 -45 51 -96 111 -114 132 -20 26 -35 36
-41 30 -5 -5 -14 -60 -20 -120 -6 -61 -23 -155 -37 -210 -43 -161 -44 -166
-51 -262 -4 -55 -3 -93 2 -93 5 0 19 39 32 88 l21 87 -5 -69 c-4 -59 -3 -67 9
-57 8 6 17 30 20 54 7 47 28 97 41 97 10 0 3 -84 -10 -115 -7 -18 -6 -18 9 -6
15 12 17 10 16 -20 -1 -46 -24 -204 -38 -254 -6 -22 -11 -57 -11 -79 0 -33 2
-37 15 -26 8 7 15 22 15 34 0 12 8 46 19 75 15 45 20 50 25 33 9 -27 -2 -105
-21 -154 -10 -25 -13 -53 -9 -85 16 -121 17 -158 2 -284 -27 -224 -78 -331
-168 -354 -21 -5 -34 4 -94 68 -39 41 -84 104 -103 142 -33 64 -34 69 -22 114
14 52 40 85 63 76 8 -3 22 -22 32 -41 12 -27 22 -35 38 -32 29 4 72 68 99 146
23 69 31 192 13 199 -6 2 -26 -27 -44 -64 -18 -37 -34 -70 -36 -72 -9 -10 -38
28 -62 79 -21 47 -25 70 -26 157 l-1 103 -48 0 c-85 0 -122 44 -132 153 -4 54
-4 58 7 32 6 -16 21 -48 32 -70 21 -39 23 -40 79 -43 37 -2 57 1 57 8 0 6 12
37 26 68 36 80 49 109 74 172 12 30 28 69 35 85 7 17 16 46 20 65 4 19 11 40
16 46 8 9 25 80 50 200 4 23 9 80 10 127 3 99 7 100 74 21z m-1181 -14 c114
-33 151 -48 271 -114 11 -6 35 -22 53 -35 46 -32 171 -79 234 -87 69 -9 92
-20 57 -29 -20 -5 -28 -16 -38 -53 -19 -74 -131 -227 -131 -181 0 30 -91 159
-168 237 -104 106 -209 178 -317 218 -37 13 -174 37 -305 52 -54 6 -54 6 -20
13 65 14 290 1 364 -21z m1092 -5 c3 -13 0 -48 -6 -77 -58 -250 -88 -348 -105
-348 -15 0 -71 18 -112 36 -17 8 -37 14 -45 14 -27 0 -28 13 -4 54 13 23 38
67 54 98 61 111 71 126 143 200 52 54 66 59 75 23z m-2999 -87 c82 -113 137
-166 181 -174 28 -6 44 1 120 52 161 109 249 157 267 150 23 -8 18 -21 -21
-58 -86 -79 -106 -100 -100 -105 3 -3 17 2 30 11 37 24 43 20 14 -11 -14 -16
-33 -41 -43 -58 -9 -16 -41 -47 -69 -68 -66 -47 -148 -125 -225 -213 l-59 -68
-64 -1 -63 0 0 200 c0 110 -3 244 -8 298 -4 53 -5 97 -3 97 2 0 22 -24 43 -52z
m1931 -125 c48 -32 94 -65 102 -73 9 -8 36 -31 62 -50 49 -37 58 -58 58 -137
0 -27 -5 -45 -12 -47 -7 -1 -35 -11 -63 -20 -89 -31 -93 -31 -106 0 -17 44
-46 163 -54 220 -6 44 -11 52 -41 69 -19 10 -34 25 -34 34 0 9 -3 26 -6 39 -4
12 -3 22 1 22 4 0 46 -26 93 -57z m-446 -70 c-72 -78 -126 -154 -114 -162 20
-13 34 -53 23 -64 -25 -25 -11 -46 53 -76 96 -46 205 -38 324 23 43 22 66 20
131 -10 31 -14 74 -34 96 -44 22 -9 56 -25 77 -34 20 -9 42 -16 50 -16 33 -1
51 -30 64 -105 10 -60 11 -84 1 -113 -11 -35 -15 -37 -65 -43 -28 -4 -71 -14
-93 -23 -48 -19 -60 -15 -34 14 18 20 18 20 -33 20 -55 0 -58 3 -53 58 2 20
-2 23 -18 17 -19 -6 -20 -1 -23 102 l-3 108 -26 3 -26 3 1 -106 1 -107 -58
-54 c-102 -95 -295 -168 -313 -119 -10 25 -41 37 -65 25 -15 -9 -19 -19 -17
-43 3 -31 4 -32 68 -40 36 -4 107 -6 158 -3 79 4 103 9 154 36 34 17 62 29 63
28 20 -32 35 -108 35 -186 0 -95 -15 -166 -49 -232 -25 -49 -34 -87 -35 -145
l-1 -50 -60 -7 c-33 -3 -104 -10 -158 -14 -101 -7 -118 -14 -97 -39 10 -12 45
-15 176 -15 133 0 164 -3 164 -14 0 -11 -40 -15 -207 -18 -197 -5 -209 -4
-225 15 -10 10 -18 30 -18 43 0 13 -8 31 -19 41 -38 37 -121 155 -142 203 -13
31 -28 50 -42 54 -53 13 -93 164 -84 313 14 211 32 308 83 443 7 19 25 74 39
122 22 72 34 92 67 122 22 20 42 36 44 36 2 0 26 15 52 33 64 44 157 85 197
86 16 1 7 -14 -43 -66z m1345 -179 c52 -14 52 -15 41 -42 -23 -54 -29 -54
-102 11 l-70 60 40 -7 c21 -4 62 -14 91 -22z m-91 -69 c92 -76 86 -64 63 -121
-39 -96 -44 -104 -61 -110 -33 -10 -55 6 -81 59 -52 107 -64 187 -32 224 21
25 14 28 111 -52z m-2287 38 c-59 -74 -259 -277 -374 -378 -43 -38 -86 -77
-95 -85 -9 -8 -40 -35 -70 -60 -72 -60 -98 -88 -106 -112 -15 -49 50 -36 139
28 35 25 45 29 38 15 -6 -10 -14 -21 -19 -23 -13 -6 -79 -92 -96 -127 -9 -19
-16 -44 -16 -57 0 -16 -22 -40 -77 -86 -91 -73 -193 -175 -193 -192 0 -6 14
-17 30 -25 33 -14 53 -6 109 43 l25 21 -22 -32 c-31 -43 -110 -112 -149 -128
-18 -8 -33 -19 -33 -24 0 -6 -5 -11 -11 -11 -25 0 -279 -254 -279 -279 0 -6
-4 -11 -8 -11 -9 0 -64 -72 -133 -173 -26 -38 -64 -80 -85 -94 l-38 -26 21 34
c11 19 83 142 160 274 208 358 495 851 520 893 12 20 27 46 33 57 6 11 22 38
35 60 14 22 29 51 35 65 6 14 18 33 27 42 12 13 14 30 9 75 -9 77 2 110 47
147 49 39 61 27 41 -41 -8 -29 -14 -65 -12 -80 3 -24 8 -28 38 -31 23 -2 52 6
81 21 72 39 179 109 179 119 0 4 5 8 11 8 11 0 125 89 196 152 45 40 65 50 42
21z m2871 -66 c61 -131 108 -263 155 -438 l17 -66 -35 -139 c-38 -149 -133
-445 -167 -519 -5 -11 -30 -69 -56 -130 -50 -115 -63 -138 -71 -118 -2 6 -12
21 -23 33 -16 19 -17 24 -4 48 25 50 43 97 69 182 14 47 30 99 36 117 10 33
34 151 49 243 25 153 20 756 -6 825 -4 8 -2 15 2 15 5 -1 20 -24 34 -53z
m-2343 -11 c-3 -7 -13 -112 -23 -233 -15 -185 -20 -218 -32 -207 -14 15 -37
18 -91 14 -47 -3 -108 -46 -132 -91 -35 -71 -21 -128 41 -156 l25 -12 -23 0
c-59 -2 -89 54 -78 146 7 57 -6 65 -25 16 -17 -46 -17 -20 0 72 16 84 36 135
53 135 4 0 34 25 68 57 43 40 60 62 58 77 -3 18 -9 21 -43 19 -39 -2 -40 -2
-19 15 11 9 33 26 48 37 16 11 58 43 95 72 69 53 87 63 78 39z m-445 -152 c13
-44 12 -46 -119 -324 -96 -203 -278 -559 -355 -695 -88 -154 -123 -204 -214
-303 -39 -44 -44 -46 -151 -68 -118 -24 -193 -56 -232 -98 l-24 -26 77 0 c72
0 176 -24 176 -41 0 -3 -51 -9 -112 -13 -94 -6 -119 -11 -148 -30 -19 -13 -62
-32 -95 -42 l-60 -19 105 -7 c128 -9 175 -19 175 -38 0 -21 -72 -28 -320 -29
-187 -1 -208 -3 -191 -16 11 -8 29 -15 40 -15 27 0 210 -46 232 -58 20 -11
-119 -22 -295 -22 -163 -1 -141 -15 45 -30 139 -11 256 -31 239 -42 -6 -3 -93
-6 -195 -6 -187 0 -238 -7 -462 -62 -50 -12 -69 -37 -20 -26 137 31 366 43
507 27 114 -13 139 -27 105 -59 -18 -17 -27 -19 -53 -10 -92 29 -315 34 -341
8 -6 -6 -17 -10 -25 -10 -8 0 -39 -12 -70 -26 -51 -25 -58 -26 -100 -14 -76
20 -152 22 -215 6 -33 -9 -61 -14 -63 -12 -2 1 25 27 59 57 34 30 69 61 78 69
28 27 164 137 206 166 23 16 81 57 128 92 48 34 88 62 91 62 2 0 30 18 62 39
63 42 136 89 168 107 11 6 43 24 70 39 162 91 636 557 822 808 65 88 144 193
151 202 37 46 247 396 278 463 17 39 35 38 46 -4z m1929 -383 c-6 -75 -16
-175 -22 -224 -12 -83 -8 -117 10 -88 8 13 20 -8 69 -124 61 -145 146 -394
138 -403 -7 -6 -94 26 -101 38 -10 16 -86 234 -96 275 -6 21 -14 44 -18 50 -4
5 -13 37 -21 70 -7 32 -16 66 -20 75 -4 8 -17 50 -29 92 -25 92 -27 214 -5
273 8 22 18 49 21 60 4 11 11 23 16 26 5 4 7 12 3 17 -8 14 -37 5 -53 -16 -35
-43 5 64 63 168 14 25 30 59 37 75 10 26 12 13 15 -99 1 -70 -2 -189 -7 -265z
m1574 109 c8 -52 18 -102 21 -110 3 -8 10 -47 14 -86 5 -39 17 -86 27 -105 11
-19 27 -61 37 -94 16 -54 42 -126 66 -180 5 -11 21 -49 36 -85 15 -36 36 -76
46 -89 10 -13 18 -29 18 -37 0 -7 4 -14 8 -16 4 -1 21 -25 37 -53 16 -27 32
-54 37 -60 68 -83 78 -101 78 -147 0 -60 -28 -249 -45 -308 -7 -25 -24 -83
-36 -130 -24 -87 -82 -202 -120 -236 -21 -18 -21 -18 -50 16 -15 19 -29 30
-29 23 0 -20 -248 -536 -273 -568 -4 -5 -23 -39 -41 -75 -29 -55 -39 -66 -68
-73 -18 -4 -46 -12 -62 -17 -35 -11 -45 -5 -28 18 6 9 21 34 32 54 25 47 140
189 200 247 l45 44 5 99 c3 57 10 102 17 106 6 4 16 27 23 52 7 25 16 50 20
55 4 6 13 44 20 85 9 55 29 109 75 205 73 152 96 223 98 314 2 56 -3 76 -29
131 -67 139 -131 368 -155 560 -6 46 -12 87 -14 91 -3 3 -9 57 -15 120 -5 63
-14 150 -19 194 -6 44 -12 125 -15 180 l-4 100 14 -65 c8 -36 21 -108 29 -160z
m64 49 c23 -39 41 -74 41 -77 0 -4 7 -20 16 -37 9 -16 29 -64 44 -107 22 -63
65 -137 112 -192 10 -12 82 -109 113 -151 11 -16 30 -42 43 -58 22 -31 28 -58
15 -70 -5 -6 -64 51 -101 98 -4 6 -23 30 -42 55 -19 25 -37 47 -40 50 -13 13
-90 132 -90 139 0 5 -6 14 -14 20 -8 7 -17 28 -21 48 -8 45 -58 152 -83 179
-11 12 -24 49 -31 87 -6 37 -14 74 -18 84 -15 38 18 -1 56 -68z m-1569 -419
c7 -41 27 -122 46 -180 19 -58 34 -109 34 -113 0 -5 6 -23 14 -40 8 -18 27
-61 41 -97 14 -36 39 -92 55 -125 16 -33 32 -71 35 -85 4 -14 14 -33 22 -42
13 -15 13 -16 -6 -11 -11 3 -23 15 -26 27 -4 11 -10 30 -15 41 -38 93 -64 155
-76 182 -8 17 -14 34 -14 38 0 4 -7 21 -15 38 -23 52 -95 262 -95 281 0 6 -6
23 -14 37 -25 48 -27 83 -19 273 l8 191 6 -170 c4 -93 12 -204 19 -245z m-565
317 c84 -42 199 -87 229 -88 33 -2 -53 -27 -95 -28 -31 -1 -38 -6 -59 -43 -27
-49 -42 -65 -79 -90 -44 -30 -49 -24 -43 48 4 55 9 70 33 94 16 16 29 33 29
38 0 16 -60 73 -87 83 -12 5 -23 16 -23 25 0 12 3 14 13 6 6 -6 44 -26 82 -45z
m-1047 3 c11 -18 10 -20 -21 -20 -38 0 -101 -32 -153 -78 -20 -18 -38 -31 -39
-30 -1 2 0 21 4 43 9 57 39 91 97 108 55 16 92 8 112 -23z m2734 -172 c-6 -40
-14 -102 -17 -138 -9 -85 -38 -174 -72 -219 -16 -20 -39 -52 -52 -71 -13 -19
-30 -42 -37 -50 -8 -8 -35 -42 -62 -75 -26 -33 -54 -67 -62 -76 -20 -22 -103
-118 -128 -149 -11 -14 -23 -22 -26 -19 -4 3 4 17 16 31 13 14 45 48 71 77
113 124 307 381 307 407 0 7 7 33 15 57 8 24 19 89 25 143 12 118 21 167 28
160 2 -3 0 -38 -6 -78z m-2755 -54 c-1 -24 5 -39 16 -45 21 -12 22 -50 2 -88
-15 -29 -34 -113 -55 -236 -6 -38 -15 -74 -20 -80 -4 -5 -13 -26 -18 -45 -18
-59 -42 -122 -68 -177 -41 -88 -45 -103 -31 -109 8 -3 26 0 41 6 l28 10 -6
-47 c-9 -63 -46 -153 -63 -153 -7 0 -13 6 -13 14 0 8 -16 24 -35 36 -74 46
-206 17 -262 -56 -22 -30 -53 -124 -53 -164 0 -16 -5 -19 -32 -14 -18 3 -38 7
-45 9 -17 6 -25 -28 -14 -58 6 -16 20 -27 39 -32 56 -12 187 21 330 82 9 4 7
-8 -7 -35 -13 -26 -21 -60 -21 -94 0 -29 -7 -66 -16 -83 -9 -16 -39 -73 -66
-125 -27 -52 -60 -112 -71 -132 -12 -21 -35 -61 -51 -90 -16 -29 -53 -93 -82
-142 -30 -49 -54 -93 -54 -98 0 -4 -4 -8 -8 -8 -5 0 -14 -12 -20 -26 -11 -23
-177 -289 -192 -306 -3 -4 -77 43 -163 105 -196 139 -283 197 -297 197 -5 0
-10 4 -10 8 0 5 -15 16 -32 25 -18 10 -46 26 -63 37 -16 11 -43 27 -60 36 -28
15 -50 27 -120 67 l-30 17 40 -6 c22 -4 47 -10 57 -15 11 -6 23 -3 39 9 29 25
20 62 -20 80 -48 21 -101 75 -101 103 1 35 23 56 140 134 58 38 107 73 108 77
2 5 8 8 13 8 6 0 60 36 122 80 151 107 147 105 256 187 52 40 98 74 101 75 3
2 27 36 54 76 26 39 51 72 55 72 3 0 20 13 37 29 17 16 63 40 106 54 73 25
201 106 273 174 45 42 110 142 169 258 38 74 43 95 24 95 -7 0 3 11 21 25 40
29 61 51 85 88 17 25 17 27 2 27 -10 0 -29 -6 -44 -14 -15 -7 -48 -18 -73 -24
-26 -7 -54 -14 -63 -18 -22 -9 -20 12 5 47 11 16 23 44 26 63 4 27 11 35 32
39 28 6 104 54 136 86 11 11 21 20 22 20 0 1 1 -15 0 -35z m201 -184 c27 -60
64 -113 112 -160 33 -32 55 -65 74 -115 15 -39 31 -78 36 -87 6 -10 10 -23 10
-30 1 -7 9 -31 20 -53 25 -51 25 -57 -1 -53 -21 3 -40 40 -60 123 -6 21 -14
44 -19 50 -4 5 -11 27 -15 48 -5 25 -18 47 -40 65 -64 54 -146 198 -144 254 0
15 3 18 6 8 3 -8 13 -31 21 -50z m974 -10 l62 0 -30 -22 c-17 -13 -42 -35 -56
-50 -22 -24 -33 -28 -81 -28 -30 0 -62 3 -71 6 -21 8 -21 75 -1 115 l16 29 49
-25 c37 -19 65 -25 112 -25z m-367 -297 c-11 -3 -26 -10 -34 -17 -12 -9 -9
-12 15 -17 16 -4 48 -7 70 -8 25 -1 44 -6 47 -15 4 -10 -11 -15 -61 -20 -37
-3 -105 -18 -152 -32 -136 -41 -144 -41 -167 -2 -11 18 -23 45 -27 60 -6 28
-2 29 154 52 38 5 178 4 155 -1z m265 -178 c165 -6 351 -24 363 -35 14 -12
-157 -21 -204 -11 -106 23 -255 34 -339 25 l-85 -9 -10 -85 c-9 -76 -10 -80
-12 -35 -2 28 -8 69 -14 92 -19 70 -11 76 79 69 42 -3 142 -8 222 -11z m592
-9 c29 -13 70 -27 91 -31 28 -6 41 -14 48 -32 13 -34 12 -36 -14 -30 -48 13
-69 -30 -75 -156 l-5 -98 -18 30 c-10 16 -23 54 -28 83 -6 29 -16 78 -22 108
-11 59 -30 89 -69 110 -23 12 -23 13 -5 26 26 19 36 18 97 -10z m521 8 c46
-24 77 -61 77 -92 0 -21 -24 -51 -110 -137 -93 -93 -113 -108 -127 -99 -18 11
-53 95 -53 127 0 24 24 68 78 139 61 82 79 90 135 62z m-1435 -73 c18 -60 15
-75 -20 -93 -60 -31 -127 -58 -142 -58 -22 0 -46 -11 -46 -21 0 -5 33 -9 73
-9 95 -1 107 -10 107 -87 l0 -60 -62 -6 c-35 -3 -111 -19 -169 -36 -58 -17
-118 -31 -133 -31 -37 0 -46 28 -16 50 28 21 120 52 180 59 48 6 60 23 37 55
-11 15 -27 18 -105 17 -55 0 -92 4 -92 10 0 20 50 59 75 59 18 0 25 5 25 20 0
14 -9 21 -35 26 -19 3 -35 10 -35 14 0 11 81 30 128 30 48 0 77 27 68 64 -3
13 -14 27 -24 29 -9 3 26 5 79 6 l96 1 11 -39z m-542 -26 c17 -7 41 -27 54
-45 l22 -31 -21 -21 c-25 -23 -76 -39 -97 -31 -10 4 -12 15 -8 45 l7 39 -34
-3 c-28 -2 -37 -10 -54 -43 l-20 -40 -3 59 c-3 66 2 75 50 86 35 8 54 5 104
-15z m912 13 c-5 -15 -67 -26 -148 -28 l-55 -1 -23 -47 c-12 -26 -33 -60 -46
-75 l-23 -28 7 53 c4 29 13 72 19 96 l12 42 130 0 c100 0 130 -3 127 -12z
m417 -8 c33 -11 63 -26 67 -33 4 -6 8 -31 8 -54 0 -23 5 -45 10 -48 24 -15 5
-23 -62 -30 -40 -4 -111 -13 -157 -21 -46 -8 -106 -14 -134 -14 -43 0 -48 -2
-37 -15 7 -8 22 -15 34 -15 11 0 27 -4 34 -9 21 -13 -41 -31 -106 -31 l-54 0
31 35 c53 61 35 129 -24 91 l-25 -16 0 38 c0 21 -7 47 -15 58 -8 10 -15 22
-15 26 0 9 84 26 189 37 51 6 96 13 99 16 12 12 103 4 157 -15z m-1514 -278
c2 -308 11 -268 -91 -372 -31 -32 -79 -68 -110 -82 -53 -25 -110 -43 -110 -34
0 4 27 71 40 101 5 11 21 49 35 85 15 36 32 79 39 95 12 27 74 210 111 325 7
25 17 65 20 89 7 44 40 90 55 75 5 -5 10 -132 11 -282z m1047 201 c27 -59 7
-120 -47 -143 -24 -10 -35 -8 -70 9 -51 26 -61 58 -35 111 20 40 31 45 104 48
29 2 37 -3 48 -25z m853 -32 c9 -9 26 -42 39 -73 12 -32 26 -58 31 -58 16 0 9
-36 -9 -53 -18 -16 -20 -13 -54 55 -20 40 -43 92 -52 116 l-16 43 22 -6 c13
-4 30 -14 39 -24z m-1160 -114 c-13 -13 -15 14 -3 64 l7 34 3 -44 c2 -24 -2
-49 -7 -54z m-1019 65 c22 -9 10 -25 -60 -79 -67 -53 -88 -60 -110 -36 -9 11
-25 22 -34 26 -10 3 -18 11 -18 16 0 12 57 57 90 70 29 11 107 13 132 3z
m3168 -29 c85 -31 138 -73 188 -145 45 -67 60 -99 67 -153 6 -45 5 -48 -9 -32
-8 11 -18 37 -22 60 -10 61 -40 112 -97 163 -66 59 -141 96 -262 128 -11 3 5
3 35 0 30 -3 75 -12 100 -21z m-3100 -35 c0 -17 -59 -73 -67 -64 -3 3 2 15 11
28 9 12 16 35 16 50 0 26 2 27 20 16 11 -7 20 -20 20 -30z m2885 32 c-3 -5
-13 -10 -21 -10 -33 0 -116 -46 -287 -158 -70 -47 -131 -82 -134 -78 -11 11
194 162 233 172 13 3 24 10 24 15 0 5 5 9 12 9 6 0 30 9 52 20 23 10 59 24 81
29 22 5 41 9 43 10 2 1 0 -3 -3 -9z m-2492 -8 c3 -4 8 -69 12 -145 l8 -137
-51 0 c-28 0 -53 3 -55 8 -3 4 -1 30 3 57 5 28 12 89 15 138 l7 87 28 0 c16 0
31 -3 33 -8z m711 -71 c-2 -7 0 -19 6 -26 8 -10 6 -15 -10 -20 -29 -9 -71 2
-97 27 -27 25 -29 46 -6 55 9 4 25 15 36 26 19 19 19 18 48 -15 15 -18 26 -39
23 -47z m300 -87 c11 -4 16 -19 16 -49 l0 -42 -167 -8 c-93 -4 -181 -8 -198
-9 -28 -1 -30 2 -33 35 l-3 36 51 5 c29 3 59 13 68 22 13 13 38 16 133 16 65
0 124 -3 133 -6z m-427 -61 c6 -27 8 -51 4 -55 -12 -13 -222 -31 -288 -25 -73
7 -146 40 -141 65 3 16 49 25 273 51 142 17 139 17 152 -36z m2359 -139 c13
-27 13 -38 -1 -95 -44 -175 -178 -422 -299 -546 -62 -63 -79 -73 -90 -50 -3 6
-15 26 -26 42 -39 58 -52 97 -42 119 10 22 138 198 182 251 14 17 70 76 124
132 l99 102 -16 38 c-9 21 -19 56 -23 78 l-6 40 41 -40 c23 -22 49 -54 57 -71z
m-795 41 c19 -10 55 -34 80 -54 44 -34 47 -40 52 -91 2 -30 3 -57 1 -59 -2 -2
-22 9 -44 25 -56 40 -124 81 -192 116 -61 31 -73 55 -47 96 11 18 14 18 64 1
29 -9 68 -25 86 -34z m-2091 -50 c0 -33 -5 -50 -21 -63 -23 -19 -49 -74 -49
-104 0 -19 5 -20 58 -14 31 4 98 13 147 21 107 17 440 39 455 30 11 -7 14
-137 4 -148 -3 -3 -16 -2 -29 3 -13 5 -79 17 -147 27 -95 14 -185 18 -401 18
-152 0 -277 1 -277 3 0 7 31 42 108 119 78 78 81 83 54 83 -34 0 -52 16 -52
47 0 22 3 23 75 23 l75 0 0 -45z m984 19 c3 -9 6 -60 6 -114 l0 -98 -32 -14
c-18 -9 -60 -26 -93 -38 -33 -13 -73 -29 -90 -35 -80 -33 -75 -37 -75 69 l0
96 61 0 c60 0 60 0 57 28 -3 25 -7 27 -53 30 -57 4 -75 15 -75 48 0 25 24 31
150 37 36 2 81 4 101 5 26 1 39 -3 43 -14z m-334 -39 c0 -40 -2 -41 -24 -19
-23 22 -20 54 4 54 16 0 20 -7 20 -35z m-70 -1 l0 -26 -102 6 c-123 8 -163 15
-151 26 9 10 68 15 181 18 71 2 72 2 72 -24z m1527 -94 c32 -22 67 -46 77 -53
41 -26 71 -56 64 -62 -8 -9 -68 13 -68 24 0 8 -153 86 -227 117 -35 15 -43 23
-43 44 0 15 3 29 6 32 7 8 119 -52 191 -102z m-266 41 c9 -18 24 -40 33 -50
28 -31 18 -77 -20 -92 -21 -7 -24 -15 -24 -58 0 -52 -18 -152 -29 -161 -11 -9
-62 -112 -58 -117 3 -2 22 12 43 32 38 36 108 85 120 85 3 0 -13 -21 -35 -47
-43 -48 -101 -142 -101 -162 0 -7 12 2 28 20 36 44 96 98 141 128 l36 24 -42
-44 c-91 -97 -131 -190 -45 -108 50 49 122 105 122 96 0 -3 -4 -17 -10 -31
-11 -30 2 -35 22 -8 7 10 39 29 70 42 68 28 90 22 158 -43 81 -77 80 -76 80
-20 0 38 -5 56 -22 75 -13 13 -62 67 -109 119 -48 52 -91 98 -95 104 -5 5 2 1
16 -8 14 -10 32 -20 40 -24 8 -4 17 -9 20 -12 10 -12 79 -61 85 -61 4 0 25
-14 47 -31 25 -21 50 -55 70 -98 18 -36 49 -95 71 -130 l39 -65 -48 -42 c-27
-24 -52 -43 -56 -44 -4 0 -13 -6 -20 -12 -7 -7 -42 -33 -77 -56 -35 -24 -77
-53 -93 -65 -25 -19 -43 -22 -116 -22 -119 0 -129 5 -91 46 16 17 27 34 25 37
-3 3 -46 4 -96 3 -107 -3 -114 7 -47 64 49 42 111 72 182 87 77 16 83 24 25
32 -73 10 -202 -2 -281 -24 -36 -11 -81 -21 -100 -22 l-34 -3 -6 65 c-10 102
-10 309 1 382 5 37 22 93 37 125 28 58 98 136 116 130 6 -2 18 -18 28 -36z
m184 -74 c98 -48 195 -115 195 -133 0 -36 -71 -9 -195 73 -27 19 -58 39 -69
46 -40 26 -66 49 -66 58 0 15 49 -1 135 -44z m-1372 -61 c1 -47 -1 -86 -5 -86
-9 0 -22 146 -14 166 12 31 18 6 19 -80z m1712 -38 c28 -49 36 -108 16 -108
-21 0 -61 78 -61 118 0 23 4 42 8 42 4 0 21 -24 37 -52z m-4810 -56 c17 -6 68
-23 115 -37 47 -15 99 -33 117 -41 17 -8 34 -14 38 -14 3 0 44 -18 91 -40 47
-22 89 -40 95 -40 5 0 9 -4 9 -10 0 -5 5 -10 12 -10 6 0 31 -12 55 -26 43 -25
44 -26 29 -47 -9 -12 -19 -29 -23 -37 -35 -78 -374 -450 -409 -450 -20 0 -155
65 -224 109 -97 61 -220 200 -220 248 0 13 -13 31 -30 43 -32 23 -53 56 -82
130 -22 55 -22 74 -2 134 14 42 22 50 68 71 28 13 60 26 71 29 33 8 257 -1
290 -12z m4825 -91 c14 -16 20 -39 20 -69 0 -42 -1 -44 -15 -26 -8 10 -15 22
-15 26 0 4 -11 32 -25 62 -14 30 -25 60 -25 66 0 11 9 2 60 -59z m-1825 39 c3
-5 -2 -10 -13 -10 -53 0 -309 -120 -472 -220 -159 -99 -140 -92 -217 -76 -38
8 -89 25 -114 38 -51 27 -45 29 -175 -33 -45 -22 -100 -54 -124 -72 l-43 -32
-43 20 c-24 11 -42 24 -41 30 9 26 266 180 341 205 46 15 61 33 41 50 -8 7
-15 16 -15 19 0 22 424 75 675 83 39 2 98 4 132 6 34 1 64 -2 68 -8z m439
-169 c8 -84 1 -117 -27 -125 -12 -3 -75 -9 -139 -13 l-118 -6 0 96 0 96 58 6
c31 3 64 8 72 9 8 2 45 4 81 5 l66 1 7 -69z m148 22 c57 -29 149 -116 172
-163 26 -53 53 -138 71 -221 17 -81 20 -71 -40 -116 -22 -17 -103 -51 -158
-67 -51 -15 -59 -15 -73 -2 -11 12 -12 24 -5 58 5 24 12 75 16 113 6 63 4 75
-20 120 -15 28 -34 58 -43 69 -14 14 -17 40 -17 132 l-1 113 26 -6 c14 -4 46
-17 72 -30z m-482 -78 c0 -69 -3 -85 -15 -85 -12 0 -15 16 -15 85 0 69 3 85
15 85 12 0 15 -16 15 -85z m-70 -4 l0 -79 -50 -11 c-28 -6 -76 -11 -106 -11
-63 0 -224 29 -224 41 0 4 17 13 38 20 20 6 46 17 57 22 19 11 263 95 278 96
4 1 7 -35 7 -78z m2004 -341 c7 -74 10 -81 34 -94 31 -16 143 -131 215 -221
27 -33 52 -62 56 -65 3 -3 26 -30 51 -60 25 -30 47 -57 50 -60 39 -38 37 -40
-72 -40 l-105 0 -28 42 c-32 49 -122 137 -180 178 -33 22 -45 26 -65 18 -16
-6 -35 -6 -55 1 -52 18 -238 51 -295 52 l-55 1 45 9 c25 5 66 14 92 20 26 6
119 11 208 11 142 0 160 2 160 17 0 48 -146 113 -322 142 -43 7 -75 15 -73 18
5 5 16 9 130 51 47 17 159 50 196 59 4 0 10 -35 13 -79z m-919 -239 c27 -6 25
-7 -30 -25 -33 -10 -86 -31 -117 -47 -62 -31 -64 -30 -47 37 l11 44 77 -1 c42
-1 89 -4 106 -8z m-597 -65 c51 -22 53 -36 16 -121 -13 -33 -30 -72 -35 -88
l-11 -27 -164 0 -164 0 0 68 c0 56 -4 72 -20 87 -25 22 -26 62 -3 88 16 17 30
18 178 15 126 -3 169 -8 203 -22z m292 -147 c-68 -59 -138 -89 -208 -89 l-61
0 29 69 c17 39 30 76 30 84 0 32 29 48 135 74 l110 28 3 -65 3 -65 -41 -36z
m721 104 l124 -6 -75 -14 c-102 -18 -341 -32 -537 -33 -156 0 -161 1 -156 20
4 13 14 20 32 21 14 1 76 5 136 9 158 10 333 11 476 3z"/>
<path d="M4762 7200 c-36 -57 27 -123 83 -86 32 21 40 52 21 81 -21 33 -85 35
-104 5z"/>
<path d="M3970 7130 c-54 -54 12 -126 81 -90 24 13 26 72 3 94 -21 22 -60 20
-84 -4z"/>
<path d="M4432 7027 c-16 -45 -15 -61 7 -108 15 -31 18 -52 14 -90 -6 -47 -5
-49 19 -49 18 0 27 8 36 34 7 19 22 38 32 41 23 7 26 23 6 31 -29 11 -68 75
-74 121 -8 57 -24 64 -40 20z"/>
<path d="M3800 6989 c0 -30 123 -89 186 -89 70 0 207 61 185 83 -7 7 -31 -1
-71 -22 -93 -47 -169 -41 -249 21 -27 20 -51 24 -51 7z"/>
<path d="M4220 6982 c0 -10 -41 -52 -74 -76 -20 -14 -23 -21 -14 -28 34 -21
123 3 132 36 3 12 6 33 6 49 0 22 -4 27 -25 27 -14 0 -25 -3 -25 -8z"/>
<path d="M4905 6881 c-14 -21 -40 -45 -58 -54 -62 -29 -102 -44 -137 -52 -19
-4 -39 -11 -45 -15 -5 -4 -39 -13 -75 -20 -36 -6 -69 -15 -75 -18 -11 -7 -102
-25 -225 -43 -95 -14 -283 -5 -332 16 -21 8 -49 15 -63 15 -21 0 -25 -5 -25
-30 0 -16 5 -30 10 -30 6 0 10 4 10 9 0 17 61 20 106 5 78 -26 369 -8 519 32
204 55 235 65 332 110 36 17 70 24 112 24 34 0 61 4 61 9 0 10 -39 62 -55 73
-20 15 -35 7 -60 -31z"/>
<path d="M4377 6853 c-12 -12 -7 -43 6 -43 14 0 47 31 47 43 0 9 -45 9 -53 0z"/>
<path d="M3156 7779 c41 -47 213 -142 233 -129 10 6 8 11 -10 23 -13 8 -34 18
-46 22 -13 3 -23 11 -23 16 0 5 -5 9 -12 9 -12 0 -82 44 -106 68 -7 6 -23 12
-34 12 -21 0 -21 0 -2 -21z"/>
<path d="M3143 7734 c-7 -19 16 -39 99 -83 55 -30 108 -41 108 -22 0 5 -21 19
-46 31 -25 12 -67 38 -94 56 -57 39 -59 40 -67 18z"/>
<path d="M2995 7409 c-4 -6 1 -16 11 -24 24 -17 102 -37 115 -29 15 9 -10 34
-35 34 -12 0 -31 7 -42 15 -23 17 -40 19 -49 4z"/>
<path d="M3256 7335 c-10 -7 -15 -18 -11 -24 11 -18 61 -12 80 9 18 19 17 20
-3 20 -11 0 -26 2 -34 5 -7 2 -21 -2 -32 -10z"/>
<path d="M3367 6860 c-29 -28 -127 -76 -185 -90 -55 -13 -65 -19 -54 -37 8
-13 117 13 172 42 44 23 130 87 130 97 0 15 -45 7 -63 -12z"/>
<path d="M4800 6202 c-25 -18 -41 -32 -75 -71 -16 -19 -17 -24 -5 -31 21 -14
74 -12 88 2 7 7 12 21 12 31 0 10 9 31 20 47 29 41 7 54 -40 22z"/>
<path d="M4870 5923 c-8 -3 -31 -20 -51 -37 -19 -17 -48 -41 -63 -54 -15 -13
-26 -26 -23 -29 3 -2 33 3 67 11 34 9 77 16 95 16 34 0 75 30 75 56 0 26 -66
51 -100 37z"/>
<path d="M4775 5699 c-79 -45 -326 -168 -425 -212 -19 -8 -60 -27 -92 -41 -55
-24 -76 -42 -64 -53 4 -5 87 29 241 97 59 27 221 90 230 90 6 0 23 7 38 15 15
8 42 19 60 24 130 39 245 100 231 123 -3 4 -33 8 -67 8 -56 0 -71 -5 -152 -51z"/>
<path d="M5537 4924 c6 -216 5 -228 -11 -215 -23 19 -56 85 -56 111 0 32 -30
24 -44 -12 -33 -80 -31 -90 26 -151 56 -59 110 -91 170 -101 46 -8 44 8 -5 39
-35 23 -37 38 -18 110 6 22 11 88 11 147 0 91 -4 120 -27 185 -49 146 -52 139
-46 -113z"/>
<path d="M5714 4613 c0 -54 -3 -107 -5 -118 -3 -14 5 -24 35 -38 21 -10 47
-27 59 -38 11 -10 25 -19 30 -19 13 0 -2 98 -23 145 -10 22 -21 50 -24 63 -4
12 -12 22 -17 22 -5 0 -9 6 -9 13 0 6 -10 25 -23 40 l-22 28 -1 -98z"/>
<path d="M4959 4582 c-72 -40 -161 -103 -155 -109 2 -2 29 7 60 21 31 14 72
28 91 32 20 3 38 10 41 15 3 5 15 9 28 9 28 0 46 18 46 47 0 34 -32 29 -111
-15z"/>
<path d="M5610 7772 c-14 -9 -29 -22 -33 -29 -4 -7 -12 -13 -18 -13 -5 0 -43
-27 -85 -60 -51 -41 -71 -62 -61 -66 17 -6 40 8 155 90 75 55 94 77 75 89 -5
3 -19 -3 -33 -11z"/>
<path d="M5650 7584 c-30 -20 -75 -47 -100 -62 -48 -28 -62 -41 -54 -54 8 -13
17 -10 89 36 105 67 145 96 145 107 0 17 -26 9 -80 -27z"/>
</g>
</svg>
